<svg xmlns="http://www.w3.org/2000/svg" width="500" height="400" fill="none" viewBox="0 0 500 400"><path fill="#E0E8F7" d="M195 262.44c0 2.045.984 4.09 3.027 5.227l2.952 1.666 137.36 79.54c4.314 2.5 9.687 2.5 14.076 0l78.784-45.527 2.951-1.666c2.044-1.137 3.028-3.182 3.028-5.227 0-2.046-.984-4.091-3.028-5.227l-140.387-81.283a14.151 14.151 0 0 0-14.076 0l-81.735 47.194c-1.968 1.212-2.952 3.258-2.952 5.303Z"/><path fill="#fff" stroke="#223893" stroke-linecap="round" stroke-linejoin="round" stroke-miterlimit="10" stroke-width=".8" d="M195 232.821c0 2.045.984 4.09 3.027 5.227l2.952 1.666 137.36 79.54c4.314 2.5 9.687 2.5 14.076 0l78.784-45.527 2.951-1.667c2.044-1.136 3.028-3.181 3.028-5.227 0-2.045-.984-4.09-3.028-5.226L293.763 180.4a14.146 14.146 0 0 0-14.076 0l-81.735 47.194a6.141 6.141 0 0 0-2.952 5.227Z"/><path fill="#E0E8F7" stroke="#223893" stroke-linecap="round" stroke-linejoin="round" stroke-miterlimit="10" stroke-width=".8" d="M195 232.821v11.06c0 2.045.984 4.091 3.027 5.227l140.312 81.206c4.314 2.5 9.687 2.5 14.076 0l81.735-47.193c2.044-1.137 3.028-3.182 3.028-5.227V266.91c0 2.045-.984 4.09-3.028 5.226l-2.951 1.667-78.784 45.527c-4.313 2.5-9.687 2.5-14.076 0l-137.436-79.54-2.951-1.666c-1.968-1.212-2.952-3.258-2.952-5.303Z"/><path fill="#E0E8F7" stroke="#223893" stroke-linecap="round" stroke-miterlimit="10" stroke-width=".8" d="m366.568 276.908 9.99 5.758c.303.151.832.151 1.211-.076l3.178-1.818c.379-.227.379-.53.076-.682l-9.99-5.757c-.303-.152-.832-.152-1.211.076l-3.178 1.818c-.379.227-.379.53-.076.681ZM357.713 271.833l3.329 1.894c.303.151.833.151 1.211-.076l3.179-1.818c.378-.227.378-.53.076-.682l-3.33-1.894c-.303-.151-.833-.151-1.211.076l-3.179 1.818c-.378.152-.378.455-.075.682ZM348.857 266.682l3.33 1.894c.303.151.832.151 1.211-.076l3.178-1.818c.379-.227.379-.53.076-.682l-3.33-1.894c-.303-.151-.832-.151-1.211.076L348.933 266c-.379.227-.379.53-.076.682ZM339.927 261.531l3.33 1.894c.303.151.833.151 1.211-.076l3.179-1.818c.378-.228.378-.531.075-.682l-3.33-1.818c-.302-.152-.832-.152-1.211.076l-3.178 1.818c-.303.151-.379.454-.076.606ZM331.074 256.456l3.33 1.893c.302.152.832.152 1.21-.075l3.179-1.818c.378-.228.378-.531.076-.682l-3.33-1.894c-.303-.151-.833-.152-1.211.076l-3.179 1.818c-.302.151-.378.454-.075.682ZM322.218 251.304l3.33 1.894c.303.152.833.152 1.211-.076l3.179-1.818c.378-.227.378-.53.075-.682l-3.329-1.893c-.303-.152-.833-.152-1.211.075l-3.179 1.818c-.378.228-.378.531-.076.682ZM313.365 246.153l3.33 1.894c.303.152.832.152 1.211-.076l3.178-1.818c.379-.227.379-.53.076-.681l-3.33-1.894c-.303-.152-.832-.152-1.211.076l-3.178 1.818c-.379.227-.379.53-.076.681ZM304.509 241.078l3.33 1.893c.303.152.833.152 1.211-.075l3.179-1.818c.378-.228.378-.531.075-.682l-3.329-1.894c-.303-.151-.833-.151-1.211.076l-3.179 1.818c-.378.151-.378.454-.076.682ZM295.579 235.926l3.33 1.894c.303.152.833.152 1.211-.076l3.179-1.818c.378-.227.378-.53.076-.681l-3.33-1.894c-.303-.152-.833-.152-1.211.075l-3.179 1.819c-.303.227-.378.53-.076.681ZM286.724 230.775l3.33 1.894c.303.152.832.152 1.211-.076l3.178-1.818c.379-.227.379-.53.076-.681l-3.33-1.894c-.303-.152-.832-.152-1.211.076l-3.178 1.818c-.303.227-.379.53-.076.681ZM357.713 282.06l9.989 5.757c.303.152.833.152 1.211-.076l3.179-1.818c.378-.227.378-.53.075-.682l-9.989-5.757c-.303-.151-.833-.151-1.211.076l-3.179 1.818c-.378.227-.378.53-.075.682ZM253.5 221.836l9.989 5.758c.303.151.833.151 1.211-.076l3.179-1.818c.378-.227.378-.53.076-.682l-9.99-5.757c-.303-.152-.833-.152-1.211.076l-3.179 1.818c-.378.227-.378.53-.075.681ZM348.857 276.908l3.33 1.894c.303.152.832.152 1.211-.075l3.178-1.819c.379-.227.379-.53.076-.681l-3.33-1.894c-.303-.152-.832-.152-1.211.076l-3.178 1.818c-.379.227-.379.53-.076.681ZM339.927 271.833l3.33 1.894c.303.151.833.151 1.211-.076l3.179-1.818c.378-.227.378-.53.075-.682l-3.33-1.894c-.302-.151-.832-.151-1.211.076l-3.178 1.818c-.303.152-.379.455-.076.682ZM331.074 266.682l3.33 1.894c.302.151.832.151 1.21-.076l3.179-1.818c.378-.227.378-.53.076-.682l-3.33-1.894c-.303-.151-.833-.151-1.211.076L331.149 266c-.302.227-.378.53-.075.682ZM322.218 261.531l3.33 1.893c.303.152.833.152 1.211-.075l3.179-1.818c.378-.228.378-.531.075-.682l-3.329-1.894c-.303-.152-.833-.152-1.211.076l-3.179 1.818c-.378.227-.378.53-.076.682ZM313.365 256.456l3.33 1.893c.303.152.832.152 1.211-.075l3.178-1.818c.379-.228.379-.531.076-.682l-3.33-1.894c-.303-.151-.832-.152-1.211.076l-3.178 1.818c-.379.151-.379.454-.076.682ZM304.509 251.304l3.33 1.894c.303.152.833.152 1.211-.076l3.179-1.818c.378-.227.378-.53.075-.682l-3.329-1.893c-.303-.152-.833-.152-1.211.075l-3.179 1.818c-.378.228-.378.531-.076.682ZM295.579 246.153l3.33 1.894c.303.152.833.152 1.211-.076l3.179-1.818c.378-.227.378-.53.076-.681l-3.33-1.894c-.303-.152-.833-.152-1.211.076l-3.179 1.818c-.303.227-.378.53-.076.681ZM286.724 241.078l3.33 1.893c.303.152.832.152 1.211-.075l3.178-1.818c.379-.228.379-.531.076-.682l-3.33-1.894c-.303-.151-.832-.151-1.211.076l-3.178 1.818c-.303.151-.379.454-.076.682ZM277.871 235.926l3.33 1.894c.302.152.832.152 1.211-.076l3.178-1.818c.379-.227.379-.53.076-.681l-3.33-1.894c-.303-.152-.833-.152-1.211.075l-3.179 1.819c-.378.227-.378.53-.075.681ZM269.015 230.775l3.33 1.894c.303.152.833.152 1.211-.076l3.179-1.818c.378-.227.378-.53.075-.681l-3.33-1.894c-.302-.152-.832-.152-1.21.076l-3.179 1.818c-.378.227-.378.53-.076.681ZM348.857 287.211l9.99 5.757c.303.151.832.151 1.211-.076l3.178-1.818c.379-.227.379-.53.076-.682l-9.99-5.757c-.303-.151-.832-.151-1.211.076l-3.178 1.818c-.379.151-.379.454-.076.682ZM244.57 226.988l9.989 5.757c.303.151.833.152 1.211-.076l3.179-1.818c.378-.227.378-.53.076-.682l-9.99-5.757c-.303-.151-.833-.151-1.211.076l-3.179 1.818c-.302.152-.378.455-.075.682ZM339.927 282.06l3.33 1.894c.303.151.833.151 1.211-.076l3.179-1.818c.378-.227.378-.53.075-.682l-3.33-1.894c-.302-.151-.832-.151-1.211.076l-3.178 1.818c-.303.227-.379.53-.076.682ZM331.074 276.908l3.33 1.894c.302.152.832.152 1.21-.075l3.179-1.819c.378-.227.378-.53.076-.681l-3.33-1.894c-.303-.152-.833-.152-1.211.076l-3.179 1.818c-.302.227-.378.53-.075.681ZM322.218 271.833l3.33 1.894c.303.151.833.151 1.211-.076l3.179-1.818c.378-.227.378-.53.075-.682l-3.329-1.894c-.303-.151-.833-.151-1.211.076l-3.179 1.818c-.378.152-.378.455-.076.682ZM313.365 266.682l3.33 1.894c.303.151.832.151 1.211-.076l3.178-1.818c.379-.227.379-.53.076-.682l-3.33-1.894c-.303-.151-.832-.151-1.211.076L313.441 266c-.379.227-.379.53-.076.682ZM304.509 261.531l3.33 1.893c.303.152.833.152 1.211-.075l3.179-1.818c.378-.228.378-.531.075-.682l-3.329-1.894c-.303-.152-.833-.152-1.211.076l-3.179 1.818c-.378.227-.378.53-.076.682ZM295.579 256.456l3.33 1.893c.303.152.833.152 1.211-.075l3.179-1.818c.378-.228.378-.531.076-.682l-3.33-1.894c-.303-.151-.833-.152-1.211.076l-3.179 1.818c-.303.151-.378.454-.076.682ZM286.724 251.304l3.33 1.894c.303.152.832.152 1.211-.076l3.178-1.818c.379-.227.379-.53.076-.682l-3.33-1.893c-.303-.152-.832-.152-1.211.075l-3.178 1.818c-.303.228-.379.531-.076.682ZM277.871 246.153l3.33 1.894c.302.152.832.152 1.211-.076l3.178-1.818c.379-.227.379-.53.076-.681l-3.33-1.894c-.303-.152-.833-.152-1.211.076l-3.179 1.818c-.378.227-.378.53-.075.681ZM269.015 241.078l3.33 1.893c.303.152.833.152 1.211-.075l3.179-1.818c.378-.228.378-.531.075-.682l-3.33-1.894c-.302-.151-.832-.151-1.21.076l-3.179 1.818c-.378.151-.378.454-.076.682ZM260.161 235.926l3.254 1.894c.302.152.832.152 1.211-.076l3.178-1.818c.379-.227.379-.53.076-.681l-3.33-1.894c-.303-.152-.833-.152-1.211.075l-3.178 1.819c-.303.227-.379.53 0 .681ZM331.074 297.437l9.989 5.757c.303.152.833.152 1.211-.075l3.179-1.818c.378-.228.378-.531.076-.682l-9.99-5.757c-.303-.152-.833-.152-1.211.075l-3.179 1.818c-.302.228-.378.531-.075.682ZM226.861 237.214l9.99 5.758c.303.151.832.151 1.211-.076l3.178-1.818c.379-.228.379-.531.076-.682l-9.99-5.757c-.303-.152-.832-.152-1.211.076l-3.178 1.818c-.379.227-.379.53-.076.681ZM322.218 292.286l3.33 1.894c.303.152.833.152 1.211-.076l3.179-1.818c.378-.227.378-.53.075-.681l-3.329-1.894c-.303-.152-.833-.152-1.211.076l-3.179 1.818c-.378.227-.378.53-.076.681ZM321.084 287.211l-3.33 1.894c-.303.151-.832.151-1.135 0l-65.388-37.801c-.303-.151-.303-.454 0-.606l3.33-1.894c.303-.151.832-.151 1.135 0l65.388 37.801c.303.151.303.378 0 .606ZM242.376 246.153l3.33 1.894c.303.152.833.152 1.211-.076l3.179-1.818c.378-.227.378-.53.075-.681l-3.33-1.894c-.302-.152-.832-.152-1.21.076l-3.179 1.818c-.303.227-.378.53-.076.681ZM331.074 287.211l18.844 10.908c.303.152.833.152 1.211-.076l3.179-1.818c.378-.227.378-.53.075-.682l-18.844-10.908c-.303-.151-.833-.151-1.211.076l-3.179 1.818c-.302.151-.378.454-.075.682ZM262.507 216.458l18.845 10.908c.303.152.832.152 1.211-.075l3.178-1.818c.379-.228.379-.531.076-.682l-18.844-10.909c-.303-.151-.833-.151-1.211.076l-3.179 1.818c-.378.228-.378.531-.076.682ZM235.716 232.063l18.845 10.908c.302.152.832.152 1.21-.076l3.179-1.818c.378-.227.378-.53.076-.681l-18.845-10.909c-.302-.151-.832-.151-1.211.076l-3.178 1.818c-.303.227-.379.53-.076.682ZM322.218 282.06l3.33 1.894c.303.151.833.151 1.211-.076l3.179-1.818c.378-.227.378-.53.075-.682l-3.329-1.894c-.303-.151-.833-.151-1.211.076l-3.179 1.818c-.378.227-.378.53-.076.682ZM313.365 276.908l3.33 1.894c.303.152.832.152 1.211-.075l3.178-1.819c.379-.227.379-.53.076-.681l-3.33-1.894c-.303-.152-.832-.152-1.211.076l-3.178 1.818c-.379.227-.379.53-.076.681ZM304.509 271.833l3.33 1.894c.303.151.833.151 1.211-.076l3.179-1.818c.378-.227.378-.53.075-.682l-3.329-1.894c-.303-.151-.833-.151-1.211.076l-3.179 1.818c-.378.152-.378.455-.076.682ZM295.579 266.682l3.33 1.894c.303.151.833.151 1.211-.076l3.179-1.818c.378-.227.378-.53.076-.682l-3.33-1.894c-.303-.151-.833-.151-1.211.076L295.655 266c-.303.227-.378.53-.076.682ZM286.724 261.531l3.33 1.893c.303.152.832.152 1.211-.075l3.178-1.818c.379-.228.379-.531.076-.682l-3.33-1.894c-.303-.152-.832-.152-1.211.076l-3.178 1.818c-.303.227-.379.53-.076.682ZM277.871 256.456l3.33 1.893c.302.152.832.152 1.211-.075l3.178-1.818c.379-.228.379-.531.076-.682l-3.33-1.894c-.303-.151-.833-.152-1.211.076l-3.179 1.818c-.378.151-.378.454-.075.682ZM269.015 251.304l3.33 1.894c.303.152.833.152 1.211-.076l3.179-1.818c.378-.227.378-.53.075-.682l-3.33-1.893c-.302-.152-.832-.152-1.21.075l-3.179 1.818c-.378.228-.378.531-.076.682ZM260.161 246.153l3.33 1.894c.303.152.832.152 1.211-.076l3.178-1.818c.379-.227.379-.53.076-.681l-3.33-1.894c-.303-.152-.832-.152-1.211.076l-3.178 1.818c-.379.227-.455.53-.076.681Z"/><path fill="#E0E8F7" stroke="#223893" stroke-linecap="round" stroke-linejoin="round" stroke-miterlimit="10" d="M361.497 234.942c0 .53-.075 1.136-.302 1.666-.53 1.364-1.741 2.727-3.633 3.788-5.222 3.03-13.698 3.03-18.996 0-1.892-1.061-3.103-2.424-3.632-3.788-.227-.53-.303-1.136-.303-1.666 0-1.97 1.286-3.94 3.935-5.455 5.222-3.03 13.698-3.03 18.996 0 2.649 1.44 3.935 3.485 3.935 5.455Z"/><path fill="#80C0FF" stroke="#223893" stroke-linecap="round" stroke-linejoin="round" stroke-miterlimit="10" d="M352.113 197.899v36.891c0 .152 0 .227-.076.379-.151.303-.529.606-1.059.909-1.514.682-4.087.682-5.601 0-.529-.227-.908-.53-1.059-.909-.076-.152-.076-.227-.076-.379v-36.891c0 .151 0 .227.076.378.151.303.53.606 1.059.909 1.514.682 4.087.682 5.601 0 .53-.227.908-.53 1.059-.909 0-.075.076-.227.076-.378Z"/><path fill="#3D93FA" stroke="#223893" stroke-linecap="round" stroke-linejoin="round" stroke-miterlimit="10" d="M352.113 165.552v32.346c0 .152 0 .228-.076.379-.151.303-.529.606-1.059.909-1.514.682-4.087.682-5.601 0-.529-.227-.908-.53-1.059-.909-.076-.151-.076-.227-.076-.379v-32.346h7.871Z"/><path fill="#fff" stroke="#223893" stroke-linecap="round" stroke-linejoin="round" stroke-miterlimit="10" stroke-width=".8" d="M437.404 127.07v105.978c0 2.197-.681 3.787-1.816 4.621-.227.227-.53.379-.833.53-1.362.53-3.103.379-4.995-.758l-160.14-92.569c-4.238-2.424-7.643-8.333-7.643-13.257V25.638c0-2.348.756-4.015 2.043-4.848l.227-.152c1.362-.757 3.254-.606 5.298.606l2.951 1.743 157.189 90.827c4.238 2.424 7.719 8.332 7.719 13.256Z"/><path fill="#80C0FF" stroke="#223893" stroke-linecap="round" stroke-linejoin="round" stroke-miterlimit="10" stroke-width=".8" d="M437.404 127.07v14.469l-164.832-95.22-10.595-6.137V25.638c0-2.348.756-4.015 2.043-4.848l.227-.152c1.362-.757 3.254-.606 5.298.606l2.951 1.743 157.189 90.827c4.238 2.424 7.719 8.332 7.719 13.256Z"/><path fill="#223893" d="M276.499 39.243c1.122-.649 1.117-2.76-.011-4.717-1.129-1.956-2.953-3.017-4.075-2.368-1.123.648-1.117 2.76.011 4.716 1.129 1.957 2.953 3.017 4.075 2.369ZM288.449 46.138c1.122-.648 1.116-2.76-.012-4.716-1.129-1.957-2.953-3.017-4.075-2.369-1.122.649-1.117 2.76.011 4.717 1.129 1.956 2.953 3.017 4.076 2.368ZM300.398 53.033c1.122-.649 1.117-2.76-.012-4.717-1.128-1.957-2.953-3.017-4.075-2.368-1.122.648-1.117 2.76.012 4.716 1.128 1.957 2.953 3.017 4.075 2.369Z"/><path fill="#E0E8F7" stroke="#223893" stroke-linecap="round" stroke-miterlimit="10" stroke-width=".8" d="M447.999 120.859v105.977c0 2.349-.833 4.015-2.119 4.848 0 0-.076.076-.152.076l-10.141 5.833c1.136-.909 1.817-2.5 1.817-4.621V127.07c0-4.848-3.406-10.832-7.644-13.256L272.571 22.987l-2.951-1.743c-2.043-1.212-3.935-1.363-5.298-.606l10.066-5.833.908-.53c1.362-.53 3.103-.303 4.919.758l160.14 92.569c4.238 2.5 7.644 8.409 7.644 13.257Z"/><path fill="#4CD9ED" stroke="#223893" stroke-linecap="round" stroke-linejoin="round" stroke-miterlimit="10" stroke-width=".8" d="m304.962 131.616-28.985-16.742c-2.8-1.59-5.071-5.984-5.071-9.772v-41.36c0-3.788 2.271-5.455 5.071-3.864l28.985 16.742c2.801 1.59 5.071 5.984 5.071 9.771v41.437c0 3.712-2.27 5.454-5.071 3.788Z"/><path fill="#E0E8F7" stroke="#223893" stroke-linecap="round" stroke-miterlimit="10" stroke-width=".8" d="m305.19 154.948-29.516-17.121c-2.649-1.515-4.768-5.605-4.768-9.166 0-3.56 2.119-5.151 4.768-3.636l29.591 17.045c2.649 1.515 4.768 5.605 4.768 9.166 0 3.636-2.119 5.227-4.843 3.712Z"/><path stroke="#223893" stroke-linecap="round" stroke-linejoin="round" stroke-miterlimit="10" stroke-width=".8" d="m298.379 144.569 4.692 2.727M277.793 132.676l13.471 7.803M298.455 81.089l4.617 2.727M277.793 69.196l16.347 9.393M285.664 81.316l11.201 6.439M277.793 76.77l3.406 1.97M294.141 93.815l6.584 3.788M277.793 84.422l12.639 7.272M284.756 96.012l11.428 6.591M277.793 91.997l3.406 1.97M293.156 108.436l9.914 5.757M277.793 99.572l12.109 7.045M283.621 110.556l8.174 4.697M277.793 107.147l2.952 1.743"/><path fill="#4CD9ED" stroke="#223893" stroke-linecap="round" stroke-linejoin="round" stroke-miterlimit="10" d="m286.574 204.717-10.671-6.136c-.53-.303-.53-.985 0-1.288l10.671-6.136a2.26 2.26 0 0 1 2.195 0l10.671 6.136c.53.303.53.985 0 1.288l-10.671 6.136a2.266 2.266 0 0 1-2.195 0ZM308.898 218.882l-10.671-6.136c-.529-.303-.529-.984 0-1.287l10.671-6.136a2.26 2.26 0 0 1 2.195 0l10.671 6.136c.53.303.53.984 0 1.287l-10.671 6.136c-.605.455-1.514.455-2.195 0Z"/><path stroke="#223893" stroke-linecap="round" stroke-linejoin="round" stroke-miterlimit="10" d="m370.578 255.243 25.58 14.848M380.115 244.487l4.087 18.711"/><path fill="#80C0FF" stroke="#223893" stroke-linecap="round" stroke-linejoin="round" stroke-miterlimit="10" d="M380.115 249.031a4.542 4.542 0 0 0 4.541-4.545 4.543 4.543 0 0 0-4.541-4.545 4.543 4.543 0 0 0-4.541 4.545 4.542 4.542 0 0 0 4.541 4.545Z"/><g stroke="#223893" stroke-linecap="round" stroke-linejoin="round" stroke-miterlimit="10" stroke-width=".8" clip-path="url(#clip0_1392_5718)"><path fill="#3D93FA" d="M346.091 119.61a10.812 10.812 0 0 0-3.009 2.843 14.113 14.113 0 0 0-2.341 4.765 22.75 22.75 0 0 0-2.926-2.006c-.251-.168-.502-.251-.753-.418-.167-.084-.25-.168-.418-.168-.167-.083-.25-.167-.418-.167-.167-.083-.25-.083-.418-.167-.167-.084-.25-.084-.418-.167-.919-.335-1.839-.669-2.675-.753-.083 0-.251 0-.334-.083-.92-.084-1.756-.167-2.592 0-.919.083-1.755.418-2.508.752l8.026-5.016.669-.418c2.675-1.337 6.186-1.087 10.115 1.003Z"/><path fill="#80C0FF" d="M413.473 193.931c0 1.338-.251 2.508-.585 3.428-.418 1.003-1.087 1.839-1.923 2.341l-.167.083c-1.589.836-3.846.753-6.187-.669l-66.797-38.539c-8.443-4.933-15.298-16.721-15.298-26.502 0-4.681 1.588-8.025 4.18-9.697l.585-.335a6.258 6.258 0 0 1 2.508-.752 13.344 13.344 0 0 1 2.591 0c.084 0 .251 0 .335.083a18.66 18.66 0 0 1 2.675.753c.167.083.251.083.418.167.167.084.251.084.418.167.167.084.251.084.418.167.167.084.251.168.418.168.251.083.502.25.752.418a22.692 22.692 0 0 1 2.927 2.006c.585-1.839 1.337-3.428 2.34-4.765a10.816 10.816 0 0 1 3.01-2.843c.167-.167.418-.25.585-.334.836-.502 1.672-.836 2.675-1.087 3.846-1.003 8.611-.251 13.794 2.759 10.367 6.019 19.061 18.726 22.238 31.183 1.003.334 2.09.836 3.177 1.421 7.942 4.598 14.546 15.215 15.55 24.662l.501.251c4.933 2.842 8.862 9.781 8.862 15.466Z"/><path d="M385.383 152.131c-1.337-.418-2.592-.669-3.762-.669M340.74 127.218c-.418 1.338-.669 2.842-.836 4.431M355.621 144.105l12.624 7.357M346.676 138.922l2.675 1.589M369.75 160.157l4.598 2.591M346.676 146.781l17.723 10.199M379.447 173.198l5.1 2.926M362.393 163.333l10.45 6.02M346.676 154.221l8.861 5.183"/><path fill="#3D93FA" d="M423.671 187.912c0 2.759-.919 4.765-2.508 5.685l-.25.167-9.949 5.936c.836-.502 1.421-1.254 1.923-2.341.418-.92.585-2.09.585-3.428 0-5.685-4.013-12.623-8.945-15.466l-.502-.251c-1.003-9.447-7.607-20.064-15.549-24.662-1.087-.585-2.174-1.087-3.177-1.421-3.093-12.456-11.788-25.164-22.154-31.183-5.184-3.01-9.949-3.762-13.878-2.759-.92.251-1.839.585-2.675 1.087l10.032-5.936c4.263-2.508 10.115-2.173 16.636 1.589 10.283 5.935 19.061 18.643 22.238 31.183 1.003.334 2.09.836 3.177 1.421 7.942 4.598 14.546 15.215 15.55 24.662l.501.251c4.933 2.842 8.945 9.781 8.945 15.466Z"/></g><g clip-path="url(#clip1_1392_5718)"><path fill="#E0E8F7" d="M208.491 141.949c0 .933-.509 1.95-1.443 2.544l-17.314 10.005-90.983 52.4a7.84 7.84 0 0 1-7.724 0L58.353 187.99l-17.4-9.921c-.933-.508-1.442-1.526-1.442-2.543 0-.933.509-1.95 1.443-2.544l108.297-62.49a7.841 7.841 0 0 1 7.724 0l50.074 28.829c.934.678 1.443 1.695 1.443 2.628Z"/><path fill="#fff" stroke="#223893" stroke-linecap="round" stroke-linejoin="round" stroke-miterlimit="10" stroke-width=".8" d="M208.491 96.587c0 .932-.509 1.95-1.443 2.543l-17.314 10.006-90.983 52.399a7.835 7.835 0 0 1-7.724 0l-32.675-18.908-17.4-9.92c-.933-.509-1.442-1.526-1.442-2.544 0-.932.509-1.95 1.443-2.543L149.25 65.13a7.838 7.838 0 0 1 7.724 0l50.074 28.828c.934.679 1.443 1.696 1.443 2.629Z"/><path fill="#3D93FA" stroke="#223893" stroke-linecap="round" stroke-linejoin="round" stroke-miterlimit="10" stroke-width=".8" d="M158.501 78.527 60.557 135.08s-.339-2.459 1.189-7.546c1.527-5.003 5.432-8.479 10.015-7.97 4.583.509 9.505-1.018 10.44-8.734.933-7.715 4.667-21.366 11.542-28.828 6.874-7.461 12.985-8.31 18.078-5.342 5.092 2.968 6.026 4.07 10.184 3.477 4.159-.594 8.318-5.596 9.676-11.362 1.612-6.868 10.354-22.808 20.369-25.098 3.31-.763 6.451 1.78 6.451 5.172v29.677Z"/><path fill="#80C0FF" stroke="#223893" stroke-linecap="round" stroke-linejoin="round" stroke-miterlimit="10" stroke-width=".8" d="m173.949 87.514-97.943 56.47s.254-10.938 10.354-11.955c10.1-1.018 10.949-7.207 13.24-12.21 2.377-4.918 5.772-10.514 15.193-9.666 4.753.424 8.487-3.73 10.609-9.157 2.291-5.85 2.97-13.142 10.609-14.753 14.768-3.053 12.391-9.751 16.295-19.163 2.631-6.444 9.846-12.124 16.211-13.905 2.801-.763 5.517 1.357 5.517 4.24v30.1h-.085Z"/><path fill="#E0E8F7" stroke="#223893" stroke-linecap="round" stroke-linejoin="round" stroke-miterlimit="10" stroke-width=".8" d="M91.198 152.548s-1.273-2.374 6.535-7.462c7.724-5.087 3.565-14.159 24.104-18.484 17.569-3.73 7.554-21.706 23.17-27.047 6.79-2.375 10.355 0 13.835-3.646 5.771-5.936 7.299-17.721 15.362-23.91 3.394-2.63 7.214-4.325 11.118-3.392 2.291.593 3.904 2.713 3.904 5.002v22.3l-98.028 56.639Z"/><path fill="#E0E8F7" stroke="#223893" stroke-linecap="round" stroke-linejoin="round" stroke-miterlimit="10" stroke-width=".8" d="M208.491 96.587V121.6c0 .932-.509 1.95-1.443 2.543L98.751 186.548a7.835 7.835 0 0 1-7.724 0L40.954 157.72c-.934-.594-1.443-1.526-1.443-2.544v-25.013c0 .933.509 1.951 1.443 2.544l17.314 10.005 32.676 18.908a7.835 7.835 0 0 0 7.723 0l91.068-52.484 17.314-10.005c.934-.594 1.443-1.527 1.443-2.544Z"/><path fill="#223893" d="M174.866 132.933c.937-1.622.94-3.374.007-3.912-.934-.539-2.451.34-3.388 1.962-.938 1.622-.941 3.373-.007 3.912.933.539 2.45-.34 3.388-1.962ZM187.774 125.496c.937-1.622.94-3.373.007-3.912-.934-.538-2.451.34-3.388 1.962-.938 1.622-.941 3.374-.007 3.912.933.539 2.45-.34 3.388-1.962ZM200.565 118.09c.937-1.622.94-3.373.007-3.912-.934-.538-2.451.34-3.388 1.962-.938 1.622-.941 3.374-.007 3.912.933.539 2.45-.339 3.388-1.962Z"/><path stroke="#223893" stroke-linecap="round" stroke-linejoin="round" stroke-miterlimit="10" stroke-width=".8" d="M58.52 150.767v9.158M53.768 148.054v9.157M49.1 145.341v9.157M120.478 162.299l-10.949 6.359M130.494 156.533l-4.244 2.459"/></g><path fill="#E0E8F7" d="M167.598 298.272c0 1.939-1.297 3.877-3.89 5.385l-5.186 3.016-8.859 5.062-6.591-3.769c-6.158-3.555-16.206-3.555-22.473 0-6.158 3.554-6.158 9.37 0 12.924l3.782 2.154 2.809 1.616-11.236 6.462-2.81 1.616c-5.186 3.016-13.505 3.016-18.69 0l-2.81-1.616-11.236-6.462 2.809-1.616 3.781-2.154c6.159-3.554 6.159-9.37 0-12.924-6.158-3.555-16.206-3.555-22.473 0l-6.59 3.769-8.86-5.062-5.186-3.016c-2.593-1.508-3.889-3.446-3.889-5.385 0-1.939 1.297-3.878 3.89-5.385l2.809-1.616 11.236-6.462-2.81-1.616-3.78-2.154c-3.134-1.831-4.646-4.093-4.646-6.463 0-2.369 1.512-4.631 4.645-6.462 6.159-3.554 16.207-3.554 22.473 0l6.59 3.77 14.046-8.078c5.186-3.016 13.505-3.016 18.691 0l14.046 8.078 6.591-3.77c6.158-3.554 16.206-3.554 22.472 0 3.133 1.831 4.646 4.093 4.646 6.462 0 2.37-1.513 4.632-4.646 6.463l-3.781 2.154-2.809 1.616 11.236 6.462 2.809 1.616c2.593 1.507 3.89 3.446 3.89 5.385Z"/><path fill="#80C0FF" stroke="#223893" stroke-linecap="round" stroke-linejoin="round" stroke-miterlimit="10" d="M58.044 269.191v16.695L44 277.808c-2.593-1.508-3.89-3.447-3.89-5.386v-16.694c0 1.939 1.297 3.877 3.89 5.385l5.186 3.016 8.86 5.062Z"/><path fill="#3D93FA" stroke="#223893" stroke-linecap="round" stroke-linejoin="round" stroke-miterlimit="10" d="m87.108 278.346-3.781 2.154c-6.05-1.831-13.614-1.292-18.692 1.616l-6.59 3.77v-16.695l6.59-3.77c6.159-3.554 16.207-3.554 22.473 0 6.159 3.555 6.159 9.371 0 12.925Z"/><path fill="#fff" stroke="#223893" stroke-linecap="round" stroke-linejoin="round" stroke-miterlimit="10" d="M167.598 255.728c0 1.939-1.297 3.877-3.89 5.385l-5.186 3.016-8.859 5.062-6.591-3.769c-6.158-3.555-16.206-3.555-22.473 0-6.158 3.554-6.158 9.37 0 12.924l3.782 2.155 2.809 1.615-11.236 6.463-2.81 1.615c-5.186 3.016-13.505 3.016-18.69 0l-2.81-1.615-11.236-6.463 2.809-1.615 3.781-2.155c6.159-3.554 6.159-9.37 0-12.924-6.158-3.555-16.206-3.555-22.473 0l-6.59 3.769-8.86-5.062-5.186-3.016c-2.593-1.508-3.889-3.446-3.889-5.385 0-1.939 1.297-3.877 3.89-5.385l2.809-1.616 11.236-6.462-2.81-1.616-3.78-2.154c-3.134-1.831-4.646-4.093-4.646-6.462 0-2.37 1.512-4.632 4.645-6.463 6.159-3.554 16.207-3.554 22.473 0l6.59 3.77 14.046-8.078c5.186-3.016 13.505-3.016 18.691 0l14.046 8.078 6.591-3.77c6.158-3.554 16.206-3.554 22.472 0 3.133 1.831 4.646 4.093 4.646 6.463 0 2.369-1.513 4.631-4.646 6.462l-3.781 2.154-2.809 1.616 11.236 6.462 2.809 1.616c2.593 1.508 3.89 3.446 3.89 5.385Z"/><path fill="#80C0FF" stroke="#223893" stroke-linecap="round" stroke-linejoin="round" stroke-miterlimit="10" d="M127.296 282.116v16.695l-14.046 8.078c-5.186 3.015-13.505 3.015-18.69 0l-14.046-8.078v-16.695l11.236 6.462 2.81 1.616c5.185 3.016 13.504 3.016 18.69 0l2.81-1.616 11.236-6.462Z"/><path fill="#3D93FA" stroke="#223893" stroke-linecap="round" stroke-linejoin="round" stroke-miterlimit="10" d="M149.772 269.191v16.695l-6.591-3.77c-5.078-2.908-12.749-3.447-18.691-1.616l-3.781-2.154c-6.159-3.554-6.159-9.37 0-12.925 6.158-3.554 16.314-3.554 22.472 0l6.591 3.77Z"/><path fill="#80C0FF" stroke="#223893" stroke-linecap="round" stroke-linejoin="round" stroke-miterlimit="10" d="M167.597 255.728v16.694c0 1.939-1.296 3.878-3.889 5.386l-14.046 8.078v-16.695l8.86-5.062 5.186-3.016c2.593-1.4 3.889-3.446 3.889-5.385Z"/><path fill="#3D93FA" stroke="#223893" stroke-linecap="round" stroke-linejoin="round" stroke-miterlimit="10" d="M160.898 232.14v16.695l-11.236-6.463 2.809-1.615 3.782-2.154c3.133-1.831 4.645-4.201 4.645-6.463Z"/><path stroke="#223893" stroke-linecap="round" stroke-linejoin="round" stroke-miterlimit="10" d="M160.902 232.141v-.216"/><path fill="#3D93FA" stroke="#223893" stroke-linecap="round" stroke-linejoin="round" stroke-miterlimit="10" d="m58.043 242.372-11.236 6.463V232.14c0 2.37 1.512 4.632 4.645 6.463l3.782 2.154 2.809 1.615Z"/><path stroke="#223893" stroke-linecap="round" stroke-linejoin="round" stroke-miterlimit="10" d="M46.914 232.141v-.216"/><path fill="#E0E8F7" d="M461.311 359.074c0-.937-1.311-1.686-2.95-1.686h-6.323c-1.03 0-2.763 1.124-3.044.749-.422-.562-.281-1.17.468-1.639l4.449-2.576c1.171-.655-6.182-.374-7.353-1.03l.047-5.573c-1.171-.656-3.044-.656-4.168 0l-4.496 2.576c-.703.421-1.78.515-2.716.281-.656-.141-1.359-.328-1.921-.469-.936-.234-1.545-.749-1.545-1.311v-3.653c0-.937-1.311-1.686-2.951-1.686h-10.303c-1.639 0-2.951.749-2.951 1.686v3.653c0 .609-.655 1.124-1.639 1.311l-1.826.422c-.937.234-2.061.14-2.81-.281l-4.497-2.436c-1.17-.655-3.044-.655-4.168 0l-.515 6.042c-1.171.656-7.868-.094-6.697.562l4.496 2.576c.702.421.937 1.03.515 1.545-.281.375-2.061-.702-3.044-.702h-6.37c-1.639 0-2.95.749-2.95 1.686v8.664c0 .937 1.311 1.686 2.95 1.686h3.7l-.093 7.166a.516.516 0 0 0 0 .375c.046.374.327.749.843 1.03l7.306 4.168c.702.422 1.686.515 2.576.422l.046.047v-.047c.562-.047 1.124-.188 1.546-.422l4.496-2.576c.703-.421 1.78-.515 2.716-.281.656.141 1.359.328 1.921.469.936.187 1.545.749 1.545 1.311v3.653c0 .937 1.311 1.686 2.951 1.686h10.303c1.639 0 2.951-.749 2.951-1.686v-3.653c0-.609.655-1.124 1.639-1.311a95.332 95.332 0 0 0 1.733-.422c.936-.234 2.06-.14 2.81.281l4.496 2.576c.421.234.983.375 1.545.422v.046l.094-.046c.89.093 1.873-.047 2.576-.469l7.259-4.215c.469-.281.75-.609.843-.983h.047v-.281l-.094-7.307h3.653c1.64 0 2.951-.749 2.951-1.686l-.047-8.664Zm-23.276 7.213c-1.733 5.245-11.147 8.196-19.624 6.322-6.463-1.405-10.35-5.433-9.086-9.32 1.733-5.245 11.147-8.196 19.624-6.322 6.416 1.405 10.35 5.432 9.086 9.32Z"/><path stroke="#223893" stroke-miterlimit="10" d="M461.311 359.074c0-.937-1.311-1.686-2.95-1.686h-6.323c-1.03 0-2.763 1.124-3.044.749-.422-.562-.281-1.17.468-1.639l4.449-2.576c1.171-.655-6.182-.374-7.353-1.03l.047-5.573c-1.171-.656-3.044-.656-4.168 0l-4.496 2.576c-.703.421-1.78.515-2.716.281-.656-.141-1.359-.328-1.921-.469-.936-.234-1.545-.749-1.545-1.311v-3.653c0-.937-1.311-1.686-2.951-1.686h-10.303c-1.639 0-2.951.749-2.951 1.686v3.653c0 .609-.655 1.124-1.639 1.311l-1.826.422c-.937.234-2.061.14-2.81-.281l-4.497-2.436c-1.17-.655-3.044-.655-4.168 0l-.515 6.042c-1.171.656-7.868-.094-6.697.562l4.496 2.576c.702.421.937 1.03.515 1.545-.281.375-2.061-.702-3.044-.702h-6.37c-1.639 0-2.95.749-2.95 1.686v8.664c0 .937 1.311 1.686 2.95 1.686h3.7l-.093 7.166a.516.516 0 0 0 0 .375c.046.374.327.749.843 1.03l7.306 4.168c.702.422 1.686.515 2.576.422h.046c.562-.047 1.124-.188 1.546-.422l4.496-2.576c.703-.421 1.78-.515 2.716-.281.656.141 1.359.328 1.921.469.936.187 1.545.749 1.545 1.311v3.653c0 .937 1.311 1.686 2.951 1.686h10.303c1.639 0 2.951-.749 2.951-1.686v-3.653c0-.609.655-1.124 1.639-1.311a95.332 95.332 0 0 0 1.733-.422c.936-.234 2.06-.14 2.81.281l4.496 2.576c.421.234.983.375 1.545.422h.094c.89.093 1.873-.047 2.576-.469l7.259-4.215c.469-.281.75-.609.843-.983h.047v-.281l-.094-7.307h3.653c1.64 0 2.951-.749 2.951-1.686l-.047-8.664Zm-23.276 7.213c-1.733 5.245-11.147 8.196-19.624 6.322-6.463-1.405-10.35-5.433-9.086-9.32 1.733-5.245 11.147-8.196 19.624-6.322 6.416 1.405 10.35 5.432 9.086 9.32Z"/><path fill="#E0E8F7" d="m454.85 353.922-.047-9.319h-6.65l-1.499-.844c-1.171-.655-3.044-.655-4.168 0l-1.499.844h-9.18v-3.373c0-.936-1.311-1.686-2.95-1.686h-10.304c-1.639 0-2.95.75-2.95 1.686v3.373h-9.367l-1.405-.797c-1.171-.655-3.044-.655-4.168 0l-1.405.797h-6.744v9.226c0 .468.281.89.843 1.264l4.496-2.107 51.611-.047 4.449 2.108c.515-.328.796-.703.843-1.078h.094v-.047Z"/><path fill="#fff" d="M450.303 361.274h8.056c1.639 0 2.95-.749 2.95-1.686v-5.948c0-.937-1.311-1.686-2.95-1.686h-6.323c-1.03 0-1.967-.375-2.295-.937l-.702-.983c-.422-.562-.281-1.171.468-1.639l4.449-2.576c1.171-.656 1.171-1.733 0-2.389l-7.306-4.168c-1.171-.656-3.044-.656-4.168 0l-4.496 2.576c-.703.421-1.78.515-2.717.281-.655-.141-1.358-.328-1.92-.469-.936-.187-1.545-.749-1.545-1.311v-3.653c0-.937-1.312-1.686-2.951-1.686H418.55c-1.64 0-2.951.749-2.951 1.686v3.653c0 .609-.656 1.124-1.639 1.311l-1.827.422c-.936.234-2.06.14-2.81-.281l-4.543-2.576c-1.17-.656-3.044-.656-4.168 0l-7.259 4.215c-1.171.656-1.124 1.733 0 2.389l4.496 2.576c.703.421.937 1.03.515 1.545-.281.375-.562.749-.796 1.124-.375.562-1.265.89-2.248.89h-6.369c-1.64 0-2.951.749-2.951 1.686l.047 5.995c0 .936 1.311 1.686 2.95 1.686h6.323c1.03 0 1.967.374 2.295.936.234.328.468.656.749.984.422.562.281 1.171-.468 1.639l-4.449 2.576c-1.171.656-1.171 1.733 0 2.389l7.306 4.168c1.171.655 3.044.655 4.168 0l4.496-2.576c.703-.422 1.78-.515 2.716-.281.656.14 1.359.328 1.921.468.936.188 1.545.75 1.545 1.312v3.653c0 .936 1.311 1.686 2.951 1.686h10.303c1.639 0 2.951-.75 2.951-1.686v-3.653c0-.609.655-1.124 1.639-1.312.609-.14 1.171-.281 1.733-.421.936-.234 2.06-.141 2.81.281l4.496 2.576c1.171.655 3.044.655 4.168 0l7.259-4.215c1.171-.656 1.171-1.733 0-2.389l-4.496-2.576c-.702-.421-.89-1.03-.515-1.545.703-.984 1.358-2.014 1.405-2.061Zm-40.98-6.182c1.733-5.246 11.147-8.196 19.624-6.323 6.463 1.405 10.35 5.433 9.086 9.32-1.733 5.246-11.147 8.196-19.624 6.323-6.463-1.405-10.35-5.433-9.086-9.32Z"/><path stroke="#223893" stroke-miterlimit="10" d="M450.303 361.274h8.056c1.639 0 2.95-.749 2.95-1.686v-5.948c0-.937-1.311-1.686-2.95-1.686h-6.323c-1.03 0-1.967-.375-2.295-.937l-.702-.983c-.422-.562-.281-1.171.468-1.639l4.449-2.576c1.171-.656 1.171-1.733 0-2.389l-7.306-4.168c-1.171-.656-3.044-.656-4.168 0l-4.496 2.576c-.703.421-1.78.515-2.717.281-.655-.141-1.358-.328-1.92-.469-.936-.187-1.545-.749-1.545-1.311v-3.653c0-.937-1.312-1.686-2.951-1.686H418.55c-1.64 0-2.951.749-2.951 1.686v3.653c0 .609-.656 1.124-1.639 1.311l-1.827.422c-.936.234-2.06.14-2.81-.281l-4.543-2.576c-1.17-.656-3.044-.656-4.168 0l-7.259 4.215c-1.171.656-1.124 1.733 0 2.389l4.496 2.576c.703.421.937 1.03.515 1.545-.281.375-.562.749-.796 1.124-.375.562-1.265.89-2.248.89h-6.369c-1.64 0-2.951.749-2.951 1.686l.047 5.995c0 .936 1.311 1.686 2.95 1.686h6.323c1.03 0 1.967.374 2.295.936.234.328.468.656.749.984.422.562.281 1.171-.468 1.639l-4.449 2.576c-1.171.656-1.171 1.733 0 2.389l7.306 4.168c1.171.655 3.044.655 4.168 0l4.496-2.576c.703-.422 1.78-.515 2.716-.281.656.14 1.359.328 1.921.468.936.188 1.545.75 1.545 1.312v3.653c0 .936 1.311 1.686 2.951 1.686h10.303c1.639 0 2.951-.75 2.951-1.686v-3.653c0-.609.655-1.124 1.639-1.312.609-.14 1.171-.281 1.733-.421.936-.234 2.06-.141 2.81.281l4.496 2.576c1.171.655 3.044.655 4.168 0l7.259-4.215c1.171-.656 1.171-1.733 0-2.389l-4.496-2.576c-.702-.421-.89-1.03-.515-1.545.703-.984 1.358-2.014 1.405-2.061Zm-40.98-6.182c1.733-5.246 11.147-8.196 19.624-6.323 6.463 1.405 10.35 5.433 9.086 9.32-1.733 5.246-11.147 8.196-19.624 6.323-6.463-1.405-10.35-5.433-9.086-9.32Z"/><path fill="#E0E8F7" d="M278.936 348.224c0-1.293-1.81-2.327-4.072-2.327h-8.726c-1.422 0-3.813 1.552-4.201 1.034-.582-.775-.388-1.615.646-2.262l6.141-3.555c1.616-.905-8.532-.517-10.148-1.422l.065-7.691c-1.616-.905-4.201-.905-5.753 0l-6.205 3.555c-.969.581-2.456.711-3.748.388-.905-.194-1.875-.453-2.65-.647-1.293-.323-2.133-1.034-2.133-1.81v-5.041c0-1.293-1.81-2.327-4.072-2.327h-14.22c-2.262 0-4.072 1.034-4.072 2.327v5.041c0 .841-.905 1.552-2.262 1.81l-2.521.582c-1.293.323-2.844.194-3.878-.388l-6.205-3.361c-1.616-.905-4.201-.905-5.752 0l-.711 8.338c-1.616.905-10.859-.129-9.243.776l6.205 3.555c.969.581 1.293 1.421.711 2.132-.388.518-2.844-.969-4.201-.969h-8.791c-2.262 0-4.072 1.034-4.072 2.327v11.957c0 1.293 1.81 2.327 4.072 2.327h5.106l-.129 9.889a.72.72 0 0 0 0 .517c.065.517.453 1.034 1.164 1.422l10.083 5.753c.969.581 2.326.711 3.554.581l.065.065v-.065c.776-.064 1.551-.258 2.133-.581l6.205-3.555c.969-.582 2.456-.711 3.749-.388.905.194 1.874.452 2.65.646 1.292.259 2.133 1.034 2.133 1.81v5.041c0 1.293 1.81 2.327 4.072 2.327h14.219c2.263 0 4.072-1.034 4.072-2.327v-5.041c0-.84.905-1.551 2.262-1.81.841-.194 1.616-.388 2.392-.581 1.293-.324 2.844-.194 3.878.387l6.205 3.555c.582.323 1.357.517 2.133.582v.065l.129-.065c1.228.129 2.586-.065 3.555-.646l10.018-5.818c.647-.387 1.035-.84 1.164-1.357h.064v-.388l-.129-10.083h5.042c2.262 0 4.072-1.034 4.072-2.326l-.065-11.958Zm-32.123 9.954c-2.392 7.239-15.383 11.311-27.082 8.726-8.92-1.94-14.284-7.498-12.539-12.863 2.391-7.239 15.383-11.311 27.082-8.725 8.855 1.939 14.284 7.497 12.539 12.862Z"/><path stroke="#223893" stroke-miterlimit="10" d="M278.936 348.224c0-1.293-1.81-2.327-4.072-2.327h-8.726c-1.422 0-3.813 1.552-4.201 1.034-.582-.775-.388-1.615.646-2.262l6.141-3.555c1.616-.905-8.532-.517-10.148-1.422l.065-7.691c-1.616-.905-4.201-.905-5.753 0l-6.205 3.555c-.969.581-2.456.711-3.748.388-.905-.194-1.875-.453-2.65-.647-1.293-.323-2.133-1.034-2.133-1.81v-5.041c0-1.293-1.81-2.327-4.072-2.327h-14.22c-2.262 0-4.072 1.034-4.072 2.327v5.041c0 .841-.905 1.552-2.262 1.81l-2.521.582c-1.293.323-2.844.194-3.878-.388l-6.205-3.361c-1.616-.905-4.201-.905-5.752 0l-.711 8.338c-1.616.905-10.859-.129-9.243.776l6.205 3.555c.969.581 1.293 1.421.711 2.132-.388.518-2.844-.969-4.201-.969h-8.791c-2.262 0-4.072 1.034-4.072 2.327v11.957c0 1.293 1.81 2.327 4.072 2.327h5.106l-.129 9.889a.72.72 0 0 0 0 .517c.065.517.453 1.034 1.164 1.422l10.083 5.753c.969.581 2.326.711 3.554.581h.065c.776-.064 1.551-.258 2.133-.581l6.205-3.555c.969-.582 2.456-.711 3.749-.388.905.194 1.874.452 2.65.646 1.292.259 2.133 1.034 2.133 1.81v5.041c0 1.293 1.81 2.327 4.072 2.327h14.219c2.263 0 4.072-1.034 4.072-2.327v-5.041c0-.84.905-1.551 2.262-1.81.841-.194 1.616-.388 2.392-.581 1.293-.324 2.844-.194 3.878.387l6.205 3.555c.582.323 1.357.517 2.133.582h.129c1.228.129 2.586-.065 3.555-.646l10.018-5.818c.647-.387 1.035-.84 1.164-1.357h.064v-.388l-.129-10.083h5.042c2.262 0 4.072-1.034 4.072-2.326l-.065-11.958Zm-32.123 9.954c-2.392 7.239-15.383 11.311-27.082 8.726-8.92-1.94-14.284-7.498-12.539-12.863 2.391-7.239 15.383-11.311 27.082-8.725 8.855 1.939 14.284 7.497 12.539 12.862Z"/><path fill="#E0E8F7" d="m270.019 341.115-.065-12.863h-9.178l-2.068-1.163c-1.616-.905-4.202-.905-5.753 0l-2.068 1.163h-12.668v-4.653c0-1.293-1.81-2.327-4.072-2.327h-14.22c-2.262 0-4.072 1.034-4.072 2.327v4.653h-12.927l-1.939-1.099c-1.616-.904-4.201-.904-5.752 0l-1.939 1.099h-9.308v12.733c0 .647.388 1.228 1.164 1.745l6.205-2.908 71.227-.065 6.14 2.909c.711-.453 1.099-.97 1.163-1.487h.13v-.064Z"/><path fill="#fff" d="M263.743 351.26h11.117c2.263 0 4.072-1.034 4.072-2.327v-8.208c0-1.293-1.809-2.327-4.072-2.327h-8.725c-1.422 0-2.715-.517-3.167-1.293l-.97-1.357c-.582-.776-.388-1.616.646-2.263l6.141-3.554c1.616-.905 1.616-2.392 0-3.297l-10.083-5.752c-1.616-.905-4.202-.905-5.753 0l-6.205 3.555c-.969.581-2.456.711-3.749.387-.904-.193-1.874-.452-2.65-.646-1.292-.258-2.132-1.034-2.132-1.81v-5.041c0-1.293-1.81-2.327-4.072-2.327h-14.22c-2.262 0-4.072 1.034-4.072 2.327v5.041c0 .841-.905 1.552-2.262 1.81l-2.521.582c-1.293.323-2.844.194-3.878-.388l-6.27-3.555c-1.615-.905-4.201-.905-5.752 0l-10.018 5.817c-1.616.905-1.552 2.392 0 3.297l6.205 3.554c.969.582 1.292 1.422.711 2.133-.388.517-.776 1.035-1.099 1.552-.517.775-1.745 1.228-3.103 1.228h-8.79c-2.262 0-4.072 1.034-4.072 2.327l.065 8.273c0 1.292 1.809 2.327 4.072 2.327h8.725c1.422 0 2.715.517 3.167 1.292.324.453.647.905 1.035 1.358.581.775.387 1.615-.647 2.262l-6.14 3.555c-1.616.905-1.616 2.391 0 3.296l10.083 5.753c1.616.904 4.201.904 5.752 0l6.205-3.555c.97-.582 2.456-.711 3.749-.388.905.194 1.874.452 2.65.646 1.293.259 2.133 1.034 2.133 1.81v5.041c0 1.293 1.81 2.327 4.072 2.327h14.22c2.262 0 4.072-1.034 4.072-2.327v-5.041c0-.84.904-1.551 2.262-1.81.84-.194 1.616-.388 2.391-.582 1.293-.323 2.844-.193 3.878.388l6.205 3.555c1.616.905 4.201.905 5.753 0l10.018-5.817c1.616-.905 1.616-2.391 0-3.296l-6.205-3.555c-.969-.582-1.228-1.422-.711-2.133.97-1.357 1.875-2.779 1.939-2.844Zm-56.555-8.532c2.391-7.239 15.383-11.311 27.082-8.725 8.919 1.939 14.284 7.497 12.539 12.862-2.392 7.239-15.383 11.311-27.082 8.725-8.919-1.939-14.284-7.497-12.539-12.862Z"/><path stroke="#223893" stroke-miterlimit="10" d="M263.743 351.26h11.117c2.263 0 4.072-1.034 4.072-2.327v-8.208c0-1.293-1.809-2.327-4.072-2.327h-8.725c-1.422 0-2.715-.517-3.167-1.293l-.97-1.357c-.582-.776-.388-1.616.646-2.263l6.141-3.554c1.616-.905 1.616-2.392 0-3.297l-10.083-5.752c-1.616-.905-4.202-.905-5.753 0l-6.205 3.555c-.969.581-2.456.711-3.749.387-.904-.193-1.874-.452-2.65-.646-1.292-.258-2.132-1.034-2.132-1.81v-5.041c0-1.293-1.81-2.327-4.072-2.327h-14.22c-2.262 0-4.072 1.034-4.072 2.327v5.041c0 .841-.905 1.552-2.262 1.81l-2.521.582c-1.293.323-2.844.194-3.878-.388l-6.27-3.555c-1.615-.905-4.201-.905-5.752 0l-10.018 5.817c-1.616.905-1.552 2.392 0 3.297l6.205 3.554c.969.582 1.292 1.422.711 2.133-.388.517-.776 1.035-1.099 1.552-.517.775-1.745 1.228-3.103 1.228h-8.79c-2.262 0-4.072 1.034-4.072 2.327l.065 8.273c0 1.292 1.809 2.327 4.072 2.327h8.725c1.422 0 2.715.517 3.167 1.292.324.453.647.905 1.035 1.358.581.775.387 1.615-.647 2.262l-6.14 3.555c-1.616.905-1.616 2.391 0 3.296l10.083 5.753c1.616.904 4.201.904 5.752 0l6.205-3.555c.97-.582 2.456-.711 3.749-.388.905.194 1.874.452 2.65.646 1.293.259 2.133 1.034 2.133 1.81v5.041c0 1.293 1.81 2.327 4.072 2.327h14.22c2.262 0 4.072-1.034 4.072-2.327v-5.041c0-.84.904-1.551 2.262-1.81.84-.194 1.616-.388 2.391-.582 1.293-.323 2.844-.193 3.878.388l6.205 3.555c1.616.905 4.201.905 5.753 0l10.018-5.817c1.616-.905 1.616-2.391 0-3.296l-6.205-3.555c-.969-.582-1.228-1.422-.711-2.133.97-1.357 1.875-2.779 1.939-2.844Zm-56.555-8.532c2.391-7.239 15.383-11.311 27.082-8.725 8.919 1.939 14.284 7.497 12.539 12.862-2.392 7.239-15.383 11.311-27.082 8.725-8.919-1.939-14.284-7.497-12.539-12.862Z"/><defs><clipPath id="clip0_1392_5718"><path fill="#fff" d="M322.014 111.25h102.16v89.536h-102.16z"/></clipPath><clipPath id="clip1_1392_5718"><path fill="#fff" d="M39 43h170v165H39z"/></clipPath></defs></svg>