<svg xmlns="http://www.w3.org/2000/svg" width="500" height="400" fill="none" viewBox="0 0 500 400"><path fill="#3D93FA" stroke="#223893" stroke-linecap="round" stroke-linejoin="round" stroke-miterlimit="10" stroke-width=".787" d="M374.678 36.897c-1.377.885-2.558 1.968-3.542 3.345a16.613 16.613 0 0 0-2.756 5.61 26.67 26.67 0 0 0-3.444-2.362c-.295-.197-.59-.296-.885-.492-.197-.099-.296-.197-.492-.197-.197-.099-.296-.197-.493-.197-.196-.098-.295-.098-.492-.197-.196-.098-.295-.098-.492-.197-1.082-.393-2.164-.787-3.149-.885-.098 0-.295 0-.393-.099-1.083-.098-2.067-.197-3.051 0-1.082.099-2.066.492-2.952.886l9.447-5.904.787-.492c3.149-1.575 7.282-1.28 11.907 1.18Z"/><path fill="#80C0FF" stroke="#223893" stroke-linecap="round" stroke-linejoin="round" stroke-miterlimit="10" stroke-width=".787" d="M454.093 124.379c0 1.574-.295 2.952-.689 4.035-.492 1.18-1.279 2.164-2.263 2.755l-.197.098c-1.869.984-4.526.886-7.282-.787l-78.724-45.365c-9.939-5.707-18.008-19.681-18.008-31.096 0-5.51 1.869-9.447 4.92-11.415l.689-.394c.885-.492 1.87-.787 2.952-.885a15.794 15.794 0 0 1 3.051 0c.098 0 .295 0 .393.098.984.197 2.067.492 3.149.886.197.098.295.098.492.197.197.098.295.098.492.196.197.099.295.099.492.197.197.099.295.197.492.197.295.098.591.295.886.492a26.67 26.67 0 0 1 3.444 2.362c.689-2.165 1.575-4.035 2.755-5.61.984-1.377 2.165-2.46 3.543-3.345.197-.197.492-.295.689-.394.984-.59 1.968-.984 3.149-1.28 4.526-1.278 10.234-.294 16.335 3.248 12.104 6.987 22.437 21.945 26.176 36.706 1.181.393 2.46.984 3.739 1.672 9.349 5.413 17.123 17.91 18.304 29.03l.59.295c5.708 3.248 10.431 11.415 10.431 18.107Z"/><path stroke="#223893" stroke-linecap="round" stroke-linejoin="round" stroke-miterlimit="10" stroke-width=".787" d="M421.03 75.176c-1.575-.492-3.051-.787-4.428-.787M368.382 45.851c-.492 1.575-.787 3.346-.984 5.216M385.898 65.729l14.958 8.66M375.369 59.628l3.248 1.87M402.529 84.623l5.413 3.05M375.369 68.878l20.862 12.005M413.943 99.974l6.101 3.444M393.969 88.362l12.3 7.086M375.369 77.636l10.431 6.101"/><path fill="#3D93FA" stroke="#223893" stroke-linecap="round" stroke-linejoin="round" stroke-miterlimit="10" stroke-width=".787" d="M466 117.294c0 3.247-1.082 5.609-2.952 6.691l-.295.197-11.711 6.987c.985-.591 1.673-1.476 2.264-2.756.492-1.082.689-2.46.689-4.034 0-6.692-4.724-14.859-10.53-18.205l-.59-.295c-1.181-11.12-8.955-23.618-18.304-29.03-1.279-.689-2.558-1.28-3.739-1.673-3.739-14.662-13.974-29.62-26.176-36.705-6.101-3.543-11.809-4.527-16.335-3.248-1.083.296-2.165.69-3.149 1.28l11.809-6.987c5.018-2.952 11.907-2.559 19.582 1.87C418.667 38.372 429 53.33 432.739 68.09c1.181.393 2.46.984 3.739 1.673 9.349 5.412 17.123 17.91 18.304 29.03l.59.294c5.905 3.346 10.628 11.514 10.628 18.206Z"/><path fill="#E0E8F7" stroke="#223893" stroke-linecap="round" stroke-linejoin="round" stroke-miterlimit="10" stroke-width=".787" d="M274.896 30.007c1.378.886 2.559 1.968 3.543 3.346a16.593 16.593 0 0 1 2.755 5.61 26.748 26.748 0 0 1 3.445-2.363c.295-.196.59-.295.885-.492.197-.098.295-.196.492-.196.197-.099.296-.197.492-.197.197-.099.296-.099.492-.197.197-.098.296-.098.492-.197 1.083-.393 2.165-.787 3.149-.886.099 0 .296 0 .394-.098 1.082-.098 2.066-.197 3.051 0 1.082.098 2.066.492 2.952.886l-9.447-5.904-.787-.493c-3.149-1.574-7.282-1.279-11.908 1.181Z"/><path fill="#fff" stroke="#223893" stroke-linecap="round" stroke-linejoin="round" stroke-miterlimit="10" stroke-width=".787" d="M195.482 117.49c0 1.575.296 2.952.689 4.035.492 1.181 1.28 2.165 2.264 2.755l.196.099c1.87.984 4.527.885 7.282-.788l78.626-45.365c9.939-5.707 18.009-19.68 18.009-31.096 0-5.51-1.87-9.447-4.921-11.415l-.689-.393c-.885-.492-1.869-.788-2.952-.886a15.784 15.784 0 0 0-3.05 0c-.099 0-.295 0-.394.098-.984.197-2.066.492-3.149.886-.197.099-.295.099-.492.197s-.295.098-.492.197c-.197.098-.295.098-.492.197-.197.098-.295.196-.492.196-.295.099-.59.295-.886.492a26.739 26.739 0 0 0-3.444 2.362c-.689-2.165-1.574-4.035-2.755-5.609-.984-1.378-2.165-2.46-3.543-3.346-.197-.197-.492-.295-.689-.394-.984-.59-1.968-.983-3.149-1.279-4.526-1.279-10.234-.295-16.335 3.248-12.104 6.986-22.436 21.944-26.176 36.705-1.181.394-2.46.984-3.739 1.673-9.349 5.412-17.123 17.91-18.304 29.03l-.59.295c-5.609 3.247-10.333 11.415-10.333 18.106Z"/><path stroke="#223893" stroke-linecap="round" stroke-linejoin="round" stroke-miterlimit="10" stroke-width=".787" d="M228.646 68.287c1.575-.492 3.051-.787 4.429-.787M281.193 38.962c.492 1.575.788 3.346.984 5.216M263.678 58.84l-14.957 8.66M274.208 52.74l-3.247 1.869M247.047 77.734l-5.412 3.05M274.208 61.99l-20.862 12.005M235.632 93.085l-6.101 3.445M255.609 81.474l-12.3 7.085M274.208 70.748l-10.431 6.1"/><path fill="#E0E8F7" stroke="#223893" stroke-linecap="round" stroke-linejoin="round" stroke-miterlimit="10" stroke-width=".787" d="M183.576 110.405c0 3.247 1.083 5.609 2.952 6.691l.296.197 11.71 6.987c-.984-.59-1.673-1.476-2.264-2.755-.492-1.083-.688-2.46-.688-4.035 0-6.692 4.723-14.859 10.529-18.205l.59-.295c1.181-11.12 8.955-23.617 18.304-29.03 1.279-.689 2.558-1.28 3.739-1.673 3.74-14.662 13.974-29.62 26.176-36.705 6.101-3.543 11.809-4.527 16.335-3.247 1.083.295 2.165.688 3.149 1.279l-11.808-6.987c-5.019-2.952-11.907-2.558-19.583 1.87-12.301 7.085-22.633 22.043-26.373 36.705-1.18.394-2.46.984-3.739 1.673-9.349 5.412-17.123 17.91-18.303 29.03l-.591.295c-5.707 3.346-10.431 11.513-10.431 18.205ZM197.749 180.298l8.805 5.04c-.151-7.486 3.12-14.672 6.189-18.416 2.163-2.595 6.339-6.837 11.119-7.985 1.006-.249 2.063-.399 3.169-.299.252 0 .504.05.755.1.503.099.956.249 1.359.449l-.906-.499-7.346-4.242-.503-.3c-.604-.299-1.308-.499-2.163-.549-5.988-.399-11.623 5.141-14.239 8.335-3.119 3.693-6.389 10.88-6.239 18.366ZM187.535 201.009c.301.249.553.449.855.599l.402.249 8.403 4.791c-.302-.149-.554-.399-.856-.598-.654-.549-1.66-1.647-1.912-3.843-.201-1.647.051-3.943 1.208-7.037 2.868-7.686 10.918-9.782 10.918-9.782l-8.805-5.041s-8.05 2.096-10.918 9.782c-2.717 7.287-.453 9.932.705 10.88Z"/><path fill="#fff" stroke="#223893" stroke-linecap="round" stroke-linejoin="round" stroke-miterlimit="10" stroke-width=".787" d="M194.429 202.207c.251 2.196 1.258 3.294 1.912 3.843.302.25.553.449.855.599l.05.05.403.25c3.32 1.746 6.54-.1 6.54-.1 11.723-6.638 24.251-13.625 30.49-17.867 2.465-1.647 6.893-4.442 8.956-11.179 2.113-6.738.654-11.08-2.013-12.976-.151-.1-.302-.2-.402-.3l-.252-.15c-1.258-.698-2.616-.848-3.924-.698-.504.05-1.057.199-1.51.349-.956.3-1.861.799-2.566 1.348 0 0-.402-4.043-3.22-5.89l-.603-.349a5.464 5.464 0 0 0-1.359-.449 3.9 3.9 0 0 0-.755-.1c-1.056-.05-2.113.05-3.169.3-4.78 1.197-8.956 5.39-11.119 7.985-3.069 3.743-6.34 10.93-6.189 18.416 0 0-8.05 2.096-10.918 9.782-1.157 3.194-1.408 5.489-1.207 7.136Z"/><path fill="#E0E8F7" stroke="#223893" stroke-linecap="round" stroke-linejoin="round" stroke-miterlimit="10" stroke-width=".787" d="m228.24 158.638.905.499.604.349c2.818 1.847 3.22 5.89 3.22 5.89a7.797 7.797 0 0 1 2.566-1.348c.503-.15 1.006-.25 1.509-.349 1.308-.15 2.667 0 3.925.698l-8.553-4.891-.252-.149a6.805 6.805 0 0 0-3.924-.699ZM49.156 179.313l8.804 5.041c-.15-7.486 3.12-14.673 6.189-18.416 2.163-2.595 6.34-6.837 11.119-7.985 1.006-.25 2.063-.399 3.17-.3.251 0 .503.05.754.1.504.1.956.25 1.359.449l-.906-.499-7.346-4.242-.503-.299c-.603-.3-1.308-.499-2.163-.549-5.987-.4-11.622 5.14-14.238 8.334-3.12 3.693-6.39 10.88-6.24 18.366ZM38.94 200.025c.303.249.554.449.856.598l.403.25 8.402 4.791c-.302-.15-.554-.399-.855-.599-.654-.549-1.66-1.647-1.912-3.843-.202-1.647.05-3.942 1.207-7.037 2.868-7.685 10.918-9.782 10.918-9.782l-8.805-5.04s-8.05 2.096-10.918 9.782c-2.716 7.286-.452 9.931.705 10.88Z"/><path fill="#fff" stroke="#223893" stroke-linecap="round" stroke-linejoin="round" stroke-miterlimit="10" stroke-width=".787" d="M45.835 201.223c.252 2.196 1.258 3.294 1.912 3.843.302.249.553.449.855.599l.05.05.403.249c3.32 1.747 6.54-.1 6.54-.1 11.724-6.637 24.251-13.624 30.49-17.866 2.466-1.647 6.893-4.442 8.956-11.18 2.113-6.737.654-11.079-2.013-12.976-.15-.1-.302-.199-.402-.299l-.252-.15c-1.258-.699-2.616-.848-3.924-.699-.503.05-1.057.2-1.51.35a8.333 8.333 0 0 0-2.566 1.347s-.402-4.042-3.22-5.889l-.603-.349c-.403-.2-.856-.35-1.359-.449-.251-.05-.503-.1-.754-.1-1.057-.05-2.114.05-3.17.299-4.78 1.198-8.956 5.39-11.12 7.985-3.068 3.744-6.338 10.93-6.188 18.416 0 0-8.05 2.096-10.917 9.782-1.158 3.194-1.41 5.49-1.208 7.137Z"/><path fill="#E0E8F7" stroke="#223893" stroke-linecap="round" stroke-linejoin="round" stroke-miterlimit="10" stroke-width=".787" d="m79.646 157.654.906.499.603.349c2.818 1.847 3.22 5.889 3.22 5.889a7.797 7.797 0 0 1 2.566-1.347c.503-.15 1.007-.25 1.51-.35 1.308-.149 2.666 0 3.924.699l-8.553-4.891-.252-.15a6.813 6.813 0 0 0-3.924-.698Z"/><path fill="#E0E8F7" d="m303.991 328.284-40.287-23.364c-1.871-1.116-1.871-3.816 0-4.873l40.287-23.364c2.631-1.526 5.847-1.526 8.419 0l40.287 23.364c1.871 1.116 1.871 3.816 0 4.873l-40.287 23.364c-2.631 1.526-5.847 1.526-8.419 0Z"/><path fill="#E0E8F7" stroke="#223893" stroke-linecap="round" stroke-linejoin="round" stroke-miterlimit="10" stroke-width=".787" d="m327.671 260.774-15.261-8.864c-2.631-1.526-5.847-1.526-8.419 0l-15.261 8.864h-26.429v27.239c0 .939.468 1.878 1.403 2.465l40.287 23.365c2.631 1.526 5.847 1.526 8.419 0l40.287-23.365c.935-.528 1.403-1.467 1.403-2.465v-27.239h-26.429Z"/><path fill="#fff" stroke="#223893" stroke-linecap="round" stroke-linejoin="round" stroke-miterlimit="10" stroke-width=".787" d="m303.991 286.545-40.287-23.305c-1.871-1.116-1.871-3.816 0-4.873l40.287-23.364c2.631-1.526 5.847-1.526 8.419 0l40.287 23.364c1.871 1.116 1.871 3.816 0 4.873l-40.287 23.305c-2.631 1.526-5.847 1.526-8.419 0Z"/><path stroke="#223893" stroke-linecap="round" stroke-linejoin="round" stroke-miterlimit="10" stroke-width=".787" d="M271.246 278.503v7.396M275.572 280.968v7.456M279.959 283.493v7.455M284.285 286.017v7.396M288.611 288.541v7.397"/><path fill="#223893" d="M329.585 287.922c.645-1.123.648-2.336.004-2.709-.643-.373-1.688.235-2.334 1.358-.645 1.124-.648 2.336-.004 2.709.643.373 1.688-.235 2.334-1.358ZM322.387 292.062c.646-1.123.648-2.335.005-2.708-.643-.373-1.688.235-2.334 1.358-.646 1.123-.648 2.336-.005 2.709.644.373 1.688-.236 2.334-1.359ZM343.946 279.533c.646-1.123.648-2.336.005-2.709-.643-.373-1.688.235-2.334 1.359-.646 1.123-.648 2.335-.005 2.708.643.373 1.688-.235 2.334-1.358ZM343.948 287.868c.646-1.123.648-2.336.005-2.709-.644-.373-1.689.235-2.334 1.359-.646 1.123-.648 2.335-.005 2.708.643.373 1.688-.235 2.334-1.358ZM336.756 292.038c.646-1.123.648-2.336.005-2.709-.643-.373-1.688.235-2.334 1.358-.646 1.124-.648 2.336-.005 2.709.644.373 1.689-.235 2.334-1.358ZM322.389 300.397c.646-1.123.648-2.336.005-2.708-.643-.373-1.688.235-2.334 1.358-.646 1.123-.648 2.336-.005 2.709.643.373 1.688-.236 2.334-1.359Z"/><path fill="#E0E8F7" stroke="#223893" stroke-linecap="round" stroke-linejoin="round" stroke-miterlimit="10" stroke-width=".787" d="m288.73 223.614 15.261-8.864c2.631-1.526 5.847-1.526 8.419 0l15.261 8.864H354.1v27.239c0 .939-.468 1.879-1.403 2.466l-40.287 23.364c-2.631 1.526-5.847 1.526-8.419 0l-40.287-23.364c-.935-.529-1.403-1.468-1.403-2.466v-27.239h26.429v0Z"/><path fill="#fff" stroke="#223893" stroke-linecap="round" stroke-linejoin="round" stroke-miterlimit="10" stroke-width=".787" d="m312.41 249.386 40.287-23.365c1.871-1.115 1.871-3.815 0-4.872l-40.287-23.306c-2.631-1.526-5.847-1.526-8.419 0l-40.287 23.306c-1.871 1.115-1.871 3.816 0 4.872l40.287 23.365c2.572 1.526 5.788 1.526 8.419 0Z"/><path stroke="#223893" stroke-linecap="round" stroke-linejoin="round" stroke-miterlimit="10" stroke-width=".787" d="M345.152 241.285v7.396M340.768 243.809v7.397M336.441 246.333v7.397M332.115 248.857v7.397M327.729 251.382v7.397"/><path fill="#223893" d="M281.941 247.888c.643-.372.641-1.585-.005-2.708-.646-1.123-1.691-1.731-2.334-1.359-.643.373-.641 1.586.005 2.709s1.691 1.731 2.334 1.358ZM296.326 264.556c.643-.372.641-1.585-.005-2.708-.646-1.123-1.691-1.731-2.334-1.359-.643.373-.641 1.586.005 2.709s1.691 1.731 2.334 1.358ZM289.13 252.055c.644-.373.641-1.586-.004-2.709-.646-1.123-1.691-1.731-2.334-1.358-.644.373-.641 1.585.004 2.708.646 1.123 1.691 1.732 2.334 1.359ZM281.941 256.224c.643-.373.641-1.585-.005-2.708-.646-1.123-1.691-1.732-2.334-1.359s-.641 1.586.005 2.709 1.691 1.731 2.334 1.358ZM274.75 252.058c.643-.373.641-1.586-.005-2.709s-1.691-1.731-2.334-1.358-.641 1.585.005 2.709c.645 1.123 1.69 1.731 2.334 1.358Z"/><path fill="#E0E8F7" stroke="#223893" stroke-linecap="round" stroke-linejoin="round" stroke-miterlimit="10" stroke-width=".787" d="m327.671 186.455-15.261-8.864c-2.631-1.527-5.847-1.527-8.419 0l-15.261 8.864h-26.429v27.238c0 .94.468 1.879 1.403 2.466l40.287 23.364c2.631 1.526 5.847 1.526 8.419 0l40.287-23.423c.935-.528 1.403-1.467 1.403-2.465v-27.18h-26.429Z"/><path fill="#fff" stroke="#223893" stroke-linecap="round" stroke-linejoin="round" stroke-miterlimit="10" stroke-width=".787" d="m303.991 212.226-40.287-23.364c-1.871-1.116-1.871-3.816 0-4.873l40.287-23.364c2.631-1.526 5.847-1.526 8.419 0l40.287 23.364c1.871 1.116 1.871 3.816 0 4.873l-40.287 23.364c-2.631 1.526-5.847 1.526-8.419 0Z"/><path stroke="#223893" stroke-linecap="round" stroke-linejoin="round" stroke-miterlimit="10" stroke-width=".787" d="m282.65 191.268 4.795-2.759M300.602 201.718l4.794-2.76M297.035 199.663l4.795-2.818M293.41 197.55l4.795-2.759M289.842 195.495l4.794-2.818M286.217 193.382l4.794-2.759M333.754 191.268l-4.795-2.759M315.744 201.718l-4.795-2.76M319.369 199.663l-4.795-2.818M322.935 197.55l-4.794-2.759M326.56 195.495l-4.794-2.818M330.129 193.382l-4.795-2.759M282.65 181.582l4.795 2.759M300.602 171.133l4.794 2.759M297.035 173.188l4.795 2.817M293.41 175.301l4.795 2.759M289.842 177.415l4.794 2.759M286.217 179.469l4.794 2.759M333.754 181.582l-4.795 2.759M315.744 171.133l-4.795 2.759M319.369 173.188l-4.795 2.817M322.935 175.301l-4.794 2.759M326.56 177.415l-4.794 2.759M330.129 179.469l-4.795 2.759"/><path fill="#80C0FF" stroke="#223893" stroke-linecap="round" stroke-linejoin="round" stroke-miterlimit="10" stroke-width=".787" d="m305.862 200.72-22.278-12.915c-1.052-.587-1.052-2.113 0-2.7l22.278-12.915a4.743 4.743 0 0 1 4.677 0l22.278 12.915c1.052.587 1.052 2.113 0 2.7l-22.278 12.915a4.743 4.743 0 0 1-4.677 0Z"/><path fill="#223893" d="M308.201 181.641c.969 0 1.755-.446 1.755-.998 0-.551-.786-.997-1.755-.997-.968 0-1.754.446-1.754.997 0 .552.786.998 1.754.998ZM313.17 184.518c.969 0 1.754-.446 1.754-.998 0-.551-.785-.998-1.754-.998s-1.754.447-1.754.998c0 .552.785.998 1.754.998ZM318.199 187.453c.969 0 1.755-.447 1.755-.998 0-.551-.786-.998-1.755-.998-.968 0-1.754.447-1.754.998 0 .551.786.998 1.754.998ZM303.17 184.518c.969 0 1.754-.446 1.754-.998 0-.551-.785-.998-1.754-.998s-1.754.447-1.754.998c0 .552.785.998 1.754.998ZM308.201 187.453c.969 0 1.755-.447 1.755-.998 0-.551-.786-.998-1.755-.998-.968 0-1.754.447-1.754.998 0 .551.786.998 1.754.998ZM313.17 190.33c.969 0 1.754-.447 1.754-.998 0-.551-.785-.998-1.754-.998s-1.754.447-1.754.998c0 .551.785.998 1.754.998ZM298.143 187.453c.969 0 1.754-.447 1.754-.998 0-.551-.785-.998-1.754-.998s-1.754.447-1.754.998c0 .551.785.998 1.754.998ZM303.17 190.33c.969 0 1.754-.447 1.754-.998 0-.551-.785-.998-1.754-.998s-1.754.447-1.754.998c0 .551.785.998 1.754.998ZM308.201 193.206c.969 0 1.755-.447 1.755-.998 0-.551-.786-.998-1.755-.998-.968 0-1.754.447-1.754.998 0 .551.786.998 1.754.998Z"/><path stroke="#223893" stroke-linecap="round" stroke-linejoin="round" stroke-miterlimit="10" stroke-width=".787" d="M271.246 204.125v7.397M275.572 206.649v7.397M279.959 209.173v7.397M284.285 211.698v7.396M288.611 214.164v7.455"/><path fill="#223893" d="M343.979 205.195c.646-1.123.648-2.336.005-2.708-.643-.373-1.688.235-2.334 1.358-.646 1.123-.648 2.336-.005 2.709.643.372 1.688-.236 2.334-1.359ZM336.792 209.365c.645-1.123.648-2.336.004-2.709-.643-.372-1.688.236-2.334 1.359-.645 1.123-.648 2.336-.004 2.708.643.373 1.688-.235 2.334-1.358ZM329.602 213.535c.646-1.123.648-2.335.005-2.708-.643-.373-1.688.235-2.334 1.358-.646 1.123-.648 2.336-.005 2.709.643.373 1.688-.235 2.334-1.359ZM343.981 213.53c.646-1.123.648-2.336.005-2.709-.643-.372-1.688.236-2.334 1.359-.646 1.123-.648 2.336-.005 2.708.643.373 1.688-.235 2.334-1.358ZM329.604 221.87c.646-1.123.648-2.336.005-2.709-.643-.373-1.688.236-2.334 1.359-.646 1.123-.648 2.335-.005 2.708.643.373 1.688-.235 2.334-1.358ZM322.413 226.04c.646-1.123.648-2.335.005-2.708-.644-.373-1.689.235-2.335 1.358-.645 1.123-.648 2.336-.004 2.709.643.373 1.688-.236 2.334-1.359Z"/><path fill="#fff" stroke="#223893" stroke-linecap="round" stroke-linejoin="round" stroke-miterlimit="10" stroke-width=".492" d="M370.285 166.927c0 .709-.244 1.417-.757 1.979l-.147.147a2.622 2.622 0 0 1-.586.44l-55.831 32.228a7.902 7.902 0 0 1-7.916 0l-34.109-19.718-3.421-1.979 64.211-37.09 37.09 21.403a2.995 2.995 0 0 1 1.466 2.59Z"/><path fill="#E0E8F7" stroke="#223893" stroke-linecap="round" stroke-miterlimit="10" stroke-width=".492" d="m284.281 179.242-4.863 2.81c-.146.098-.415.074-.586-.024l-1.539-.88c-.171-.098-.196-.244-.049-.342l4.862-2.81c.147-.097.415-.073.587.025l1.539.879c.171.098.195.245.049.342ZM288.605 176.726l-1.613.928c-.146.098-.415.074-.586-.024l-1.539-.88c-.171-.097-.196-.244-.049-.342l1.612-.928c.147-.098.416-.074.587.024l1.539.88c.171.122.196.269.049.342ZM292.929 174.233l-1.612.929c-.147.097-.416.073-.587-.025l-1.539-.879c-.171-.098-.196-.245-.049-.343l1.613-.928c.146-.098.415-.073.586.024l1.539.88c.171.098.196.244.049.342ZM297.253 171.741l-1.613.928c-.146.098-.415.074-.586-.024l-1.539-.88c-.171-.097-.196-.244-.049-.342l1.612-.928c.147-.098.416-.073.587.024l1.539.88c.196.098.196.244.049.342ZM301.577 169.225l-1.613.928c-.146.098-.415.074-.586-.024l-1.539-.88c-.171-.097-.196-.244-.049-.342l1.612-.928c.147-.098.416-.074.587.024l1.539.88c.196.122.22.269.049.342ZM305.927 166.732l-1.612.929c-.147.097-.416.073-.587-.025l-1.539-.879c-.171-.098-.196-.245-.049-.342l1.613-.929c.146-.098.415-.073.586.024l1.539.88c.171.098.196.269.049.342ZM310.251 164.24l-1.612.928c-.147.098-.416.074-.587-.024l-1.539-.88c-.171-.097-.195-.244-.049-.342l1.613-.928c.146-.098.415-.073.586.024l1.54.88c.171.098.195.244.048.342ZM314.576 161.723l-1.613.929c-.147.098-.415.073-.586-.025l-1.54-.879c-.171-.098-.195-.245-.049-.342l1.613-.929c.147-.097.415-.073.586.025l1.54.879c.171.122.195.269.049.342ZM318.901 159.231l-1.612.929c-.147.097-.416.073-.587-.025l-1.539-.879c-.171-.098-.195-.245-.049-.342l1.613-.929c.146-.098.415-.073.586.024l1.539.88c.196.098.196.269.049.342ZM323.226 156.739l-1.613.928c-.147.098-.415.074-.586-.024l-1.54-.88c-.171-.097-.195-.244-.049-.342l1.613-.928c.147-.098.415-.073.586.024l1.54.88c.195.098.195.244.049.342ZM288.605 181.734l-4.862 2.81c-.147.098-.416.073-.587-.024l-1.539-.88c-.171-.098-.196-.244-.049-.342l4.862-2.81c.147-.098.416-.073.587.024l1.539.88c.171.098.196.244.049.342ZM339.474 152.365l-4.862 2.81c-.147.098-.416.074-.587-.024l-1.539-.88c-.171-.097-.195-.244-.049-.342l4.862-2.81c.147-.097.416-.073.587.025l1.539.879c.171.098.196.245.049.342ZM292.929 179.242l-1.612.929c-.147.098-.416.073-.587-.025l-1.539-.879c-.171-.098-.196-.244-.049-.342l1.613-.929c.146-.097.415-.073.586.025l1.539.879c.171.098.196.245.049.342ZM297.253 176.726l-1.613.928c-.146.098-.415.074-.586-.024l-1.539-.88c-.171-.097-.196-.244-.049-.342l1.612-.928c.147-.098.416-.074.587.024l1.539.88c.196.122.196.269.049.342ZM301.577 174.233l-1.613.929c-.146.097-.415.073-.586-.025l-1.539-.879c-.171-.098-.196-.245-.049-.343l1.612-.928c.147-.098.416-.073.587.024l1.539.88c.196.098.22.244.049.342ZM305.927 171.741l-1.612.928c-.147.098-.416.074-.587-.024l-1.539-.88c-.171-.097-.196-.244-.049-.342l1.613-.928c.146-.098.415-.073.586.024l1.539.88c.171.098.196.244.049.342ZM310.251 169.225l-1.612.928c-.147.098-.416.074-.587-.024l-1.539-.88c-.171-.097-.195-.244-.049-.342l1.613-.928c.146-.098.415-.074.586.024l1.54.88c.171.122.195.269.048.342ZM314.576 166.732l-1.613.929c-.147.097-.415.073-.586-.025l-1.54-.879c-.171-.098-.195-.245-.049-.342l1.613-.929c.147-.098.415-.073.586.024l1.54.88c.171.098.195.269.049.342ZM318.901 164.24l-1.612.928c-.147.098-.416.074-.587-.024l-1.539-.88c-.171-.097-.195-.244-.049-.342l1.613-.928c.146-.098.415-.073.586.024l1.539.88c.196.098.196.244.049.342ZM323.226 161.723l-1.613.929c-.147.098-.415.073-.586-.025l-1.54-.879c-.171-.098-.195-.245-.049-.342l1.613-.929c.147-.097.415-.073.586.025l1.54.879c.195.122.195.269.049.342ZM327.574 159.231l-1.613.929c-.147.097-.415.073-.586-.025l-1.54-.879c-.171-.098-.195-.245-.049-.342l1.613-.929c.147-.098.415-.073.586.024l1.54.88c.171.098.195.269.049.342ZM331.9 156.739l-1.613.928c-.146.098-.415.074-.586-.024l-1.539-.88c-.172-.097-.196-.244-.049-.342l1.612-.928c.147-.098.416-.073.587.024l1.539.88c.171.098.195.244.049.342ZM292.929 184.227l-4.862 2.81c-.147.097-.415.073-.587-.025l-1.539-.879c-.171-.098-.195-.245-.049-.342l4.863-2.81c.146-.098.415-.074.586.024l1.539.88c.171.097.196.268.049.342ZM343.8 154.858l-4.862 2.809c-.147.098-.415.074-.586-.024l-1.54-.88c-.171-.097-.195-.244-.049-.342l4.863-2.809c.146-.098.415-.074.586.024l1.539.88c.171.097.196.268.049.342ZM297.253 181.734l-1.613.929c-.146.097-.415.073-.586-.025l-1.539-.879c-.171-.098-.196-.245-.049-.343l1.612-.928c.147-.098.416-.073.587.024l1.539.88c.196.098.196.244.049.342ZM301.577 179.242l-1.613.929c-.146.098-.415.073-.586-.025l-1.539-.879c-.171-.098-.196-.244-.049-.342l1.612-.929c.147-.097.416-.073.587.025l1.539.879c.196.098.22.245.049.342ZM305.927 176.726l-1.612.928c-.147.098-.416.074-.587-.024l-1.539-.88c-.171-.097-.196-.244-.049-.342l1.613-.928c.146-.098.415-.074.586.024l1.539.88c.171.122.196.269.049.342ZM310.251 174.233l-1.612.929c-.147.097-.416.073-.587-.025l-1.539-.879c-.171-.098-.195-.245-.049-.343l1.613-.928c.146-.098.415-.073.586.024l1.54.88c.171.098.195.244.048.342ZM314.576 171.741l-1.613.928c-.147.098-.415.074-.586-.024l-1.54-.88c-.171-.097-.195-.244-.049-.342l1.613-.928c.147-.098.415-.073.586.024l1.54.88c.171.098.195.244.049.342ZM318.901 169.225l-1.612.928c-.147.098-.416.074-.587-.024l-1.539-.88c-.171-.097-.195-.244-.049-.342l1.613-.928c.146-.098.415-.074.586.024l1.539.88c.196.122.196.269.049.342ZM323.226 166.732l-1.613.929c-.147.097-.415.073-.586-.025l-1.54-.879c-.171-.098-.195-.245-.049-.342l1.613-.929c.147-.098.415-.073.586.024l1.54.88c.195.098.195.269.049.342ZM327.574 164.24l-1.613.928c-.147.098-.415.074-.586-.024l-1.54-.88c-.171-.097-.195-.244-.049-.342l1.613-.928c.147-.098.415-.073.586.024l1.54.88c.171.098.195.244.049.342ZM331.9 161.723l-1.613.929c-.146.098-.415.073-.586-.025l-1.539-.879c-.172-.098-.196-.245-.049-.342l1.612-.929c.147-.097.416-.073.587.025l1.539.879c.171.122.195.269.049.342ZM336.226 159.231l-1.613.929c-.146.097-.415.073-.586-.025l-1.539-.879c-.171-.098-.196-.245-.049-.342l1.612-.929c.147-.098.416-.073.587.024l1.539.88c.171.098.196.269.049.342ZM301.577 189.235l-4.862 2.81c-.147.098-.416.073-.587-.025l-1.539-.879c-.171-.098-.195-.244-.049-.342l4.862-2.81c.147-.098.416-.073.587.024l1.539.88c.196.098.22.244.049.342ZM352.448 159.866l-4.862 2.81c-.147.098-.415.074-.586-.024l-1.54-.88c-.171-.097-.195-.244-.049-.342l4.863-2.81c.146-.097.415-.073.586.025l1.539.879c.196.098.196.245.049.342ZM305.927 186.719l-1.612.928c-.147.098-.416.074-.587-.024l-1.539-.88c-.171-.097-.196-.244-.049-.342l1.613-.928c.146-.098.415-.073.586.024l1.539.88c.171.122.196.269.049.342ZM306.466 184.227l1.612.928a.529.529 0 0 0 .538 0l31.934-18.423c.147-.097.147-.219 0-.317l-1.612-.929a.534.534 0 0 0-.538 0l-31.934 18.423c-.147.098-.147.245 0 .318ZM344.874 164.24l-1.613.928c-.146.098-.415.074-.586-.024l-1.539-.88c-.171-.097-.196-.244-.049-.342l1.612-.928c.147-.098.416-.073.587.024l1.539.88c.196.098.196.244.049.342ZM301.579 184.227l-9.212 5.302c-.146.098-.415.073-.586-.025l-1.54-.879c-.171-.098-.195-.245-.048-.342l9.235-5.302c.147-.098.416-.074.587.024l1.539.88c.171.097.196.268.025.342ZM348.123 157.35l-9.211 5.302c-.147.098-.415.073-.586-.025l-1.54-.879c-.171-.098-.195-.244-.049-.342l9.236-5.302c.147-.098.416-.074.587.024l1.539.88c.171.122.171.269.024.342ZM305.927 181.734l-1.612.929c-.147.097-.416.073-.587-.025l-1.539-.879c-.171-.098-.196-.245-.049-.343l1.613-.928c.146-.098.415-.073.586.024l1.539.88c.171.098.196.244.049.342ZM310.251 179.242l-1.612.929c-.147.098-.416.073-.587-.025l-1.539-.879c-.171-.098-.195-.244-.049-.342l1.613-.929c.146-.097.415-.073.586.025l1.54.879c.171.098.195.245.048.342ZM314.576 176.726l-1.613.928c-.147.098-.415.074-.586-.024l-1.54-.88c-.171-.097-.195-.244-.049-.342l1.613-.928c.147-.098.415-.074.586.024l1.54.88c.171.122.195.269.049.342ZM318.901 174.233l-1.612.929c-.147.097-.416.073-.587-.025l-1.539-.879c-.171-.098-.195-.245-.049-.343l1.613-.928c.146-.098.415-.073.586.024l1.539.88c.196.098.196.244.049.342ZM323.226 171.741l-1.613.928c-.147.098-.415.074-.586-.024l-1.54-.88c-.171-.097-.195-.244-.049-.342l1.613-.928c.147-.098.415-.073.586.024l1.54.88c.195.098.195.244.049.342ZM327.574 169.225l-1.613.928c-.147.098-.415.074-.586-.024l-1.54-.88c-.171-.097-.195-.244-.049-.342l1.613-.928c.147-.098.415-.074.586.024l1.54.88c.171.122.195.269.049.342ZM331.9 166.732l-1.613.929c-.146.097-.415.073-.586-.025l-1.539-.879c-.172-.098-.196-.245-.049-.342l1.612-.929c.147-.098.416-.073.587.024l1.539.88c.171.098.195.269.049.342ZM336.226 164.24l-1.613.928c-.146.098-.415.074-.586-.024l-1.539-.88c-.171-.097-.196-.244-.049-.342l1.612-.928c.147-.098.416-.073.587.024l1.539.88c.171.098.196.244.049.342Z"/><path fill="#80C0FF" stroke="#223893" stroke-linecap="round" stroke-miterlimit="10" stroke-width=".492" d="m344.312 177.996-15.882 9.162c-.488.294-1.344.245-1.906-.073l-5.033-2.908c-.562-.317-.635-.806-.147-1.099l15.882-9.163c.489-.293 1.344-.244 1.906.074l5.033 2.907c.562.318.611.807.147 1.1Z"/><path fill="#fff" stroke="#223893" stroke-linecap="round" stroke-linejoin="round" stroke-miterlimit="10" stroke-width=".492" d="M331.729 101.324v41.61l-64.212 37.09v-42.172a7.87 7.87 0 0 1 3.959-6.841l55.806-32.253a2.846 2.846 0 0 1 1.05-.366 3.032 3.032 0 0 1 1.808.293c.074.049.171.098.245.147a2.975 2.975 0 0 1 1.344 2.492Z"/><path fill="#80C0FF" stroke="#223893" stroke-linecap="round" stroke-linejoin="round" stroke-miterlimit="10" stroke-width=".492" d="m324.863 113.467-50.479 29.149c-1.515.88-2.737-.049-2.737-2.052 0-2.004 1.222-4.349 2.737-5.205l50.479-29.149c1.515-.879 2.737.049 2.737 2.053-.025 2.003-1.247 4.349-2.737 5.204Z"/><path fill="#E0E8F7" stroke="#223893" stroke-linecap="round" stroke-miterlimit="10" stroke-width=".492" d="M370.285 166.927v3.959c0 .782-.293 1.563-.904 2.125a2.622 2.622 0 0 1-.586.44l-55.831 32.228a7.902 7.902 0 0 1-7.916 0l-39.045-22.528a3.449 3.449 0 0 1-1.735-3.005v-44.151a7.872 7.872 0 0 1 3.959-6.842l55.854-32.252c.953-.537 2.004-.513 2.859-.049l.245.147.048.024 2.884 1.662c-.538-.293-1.173-.391-1.809-.293a3 3 0 0 0-1.05.366l-55.782 32.228a7.931 7.931 0 0 0-3.958 6.841v42.197l3.421 1.979 34.133 19.718a7.904 7.904 0 0 0 7.917 0l55.806-32.228c.22-.122.415-.269.586-.44l.147-.146a2.916 2.916 0 0 0 .757-1.98Z"/><path fill="#fff" d="M388.335 211.632c-.459 0-.919-.042-1.379-.083-3.218-.46-6.019-2.466-7.44-5.392-9.362-19.394-11.703-24.911-13.458-28.254-1.923-.711-5.559-1.881-8.652-2.884-2.842-.878-4.556-3.804-3.845-6.688.794-3.051 3.971-4.806 6.98-3.887 11.201 3.511 11.995 4.138 12.748 4.723 1.254.962-1.129-3.218 5.809 10.909 2.717 5.475 5.726 11.703 8.276 16.927.627 1.254 2.299 1.505 3.218.46l26.123-29.09c2.048-2.257 5.517-2.466 7.774-.418 2.257 2.048 2.466 5.517.418 7.774l-29.299 32.643a9.768 9.768 0 0 1-7.273 3.26Z"/><path fill="#223893" d="M388.338 212.05c-.46 0-.961-.042-1.421-.083a10.14 10.14 0 0 1-7.732-5.643c-5.267-10.867-8.276-17.303-10.282-21.567-1.505-3.218-2.383-5.057-3.135-6.52a227.614 227.614 0 0 0-8.485-2.8c-3.092-.962-4.89-4.138-4.096-7.189a5.798 5.798 0 0 1 2.884-3.678 5.81 5.81 0 0 1 4.64-.46c11.243 3.553 12.037 4.138 12.873 4.807.961.752 1.881 2.633 3.511 6.102a169.248 169.248 0 0 0 2.424 4.932c2.173 4.305 4.514 9.195 6.604 13.5l1.672 3.385c.209.46.668.795 1.17.836.502.084 1.003-.125 1.379-.501l17.596-19.603 5.81-6.311.627.544-5.768 6.311-17.596 19.602c-.543.585-1.337.878-2.09.752-.794-.125-1.463-.585-1.797-1.337l-1.672-3.385c-2.09-4.305-4.472-9.196-6.604-13.501-.961-1.922-1.713-3.511-2.424-4.973-1.546-3.219-2.466-5.183-3.302-5.81-.71-.543-1.504-1.17-12.622-4.639-1.338-.418-2.759-.293-3.971.418-1.212.668-2.09 1.797-2.466 3.176-.669 2.633.878 5.35 3.553 6.186 3.344 1.045 6.854 2.215 8.693 2.884l.168.042.083.125c.794 1.505 1.63 3.344 3.219 6.687 2.006 4.264 5.015 10.7 10.281 21.525a9.433 9.433 0 0 0 7.106 5.183 9.465 9.465 0 0 0 8.275-3.009l21.818-24.284.627.544-21.818 24.283c-2.089 2.215-4.848 3.469-7.732 3.469Z"/><path fill="#151617" d="M425.87 370.834c1.128 0 2.215.459 3.051 1.254l.042.041c.71.669 1.086 1.63 1.086 2.592v2.884c0 3.343-1.88 6.353-4.89 7.857-2.507 1.212-5.433 1.212-7.899-.083l-24.284-13.542a6.091 6.091 0 0 1-2.842-7.231c1.505-4.597 5.517-9.989 16.217-5.601l10.658 4.849 8.861 6.98Z"/><path fill="#EFF4FE" d="M425.87 368.117c1.128 0 2.215.46 3.051 1.254l.042.042c.71.668 1.086 1.63 1.086 2.591v2.884c0 3.344-1.88 6.353-4.89 7.858-2.507 1.212-5.433 1.212-7.899-.084l-24.284-13.542a6.09 6.09 0 0 1-2.842-7.231c1.505-4.597 5.517-9.989 16.217-5.6l10.658 4.848 8.861 6.98Z"/><path fill="#E0E8F7" d="M430.048 371.795c-.042-.878.209-2.884-.125-3.845l-2.174-3.219c-.794-.794-.71 3.428-1.839 3.428l-8.86-7.022-10.658-4.848c-10.658-4.389-14.713 1.003-16.217 5.6 0 .042-.042.126-.042.167a6.364 6.364 0 0 0 2.884 3.637l24.283 13.542c2.466 1.295 5.392 1.295 7.9.083 2.842-1.421 4.723-4.346 4.848-7.523Z"/><path fill="#223893" d="M421.314 380.614a9.361 9.361 0 0 1-4.222-1.003l-24.283-13.542c-1.505-.836-2.592-2.215-3.093-3.887l-.042-.125.042-.168c0-.041.041-.083.041-.125 1.087-3.26 2.884-5.517 5.35-6.646 2.968-1.379 6.771-1.086 11.369.795l10.658 4.848-.334.752-10.658-4.848c-4.347-1.797-7.984-2.048-10.7-.794-2.257 1.045-3.929 3.134-4.932 6.144v.042c.46 1.379 1.379 2.549 2.675 3.26l24.283 13.542c2.341 1.212 5.141 1.212 7.482.083 2.758-1.337 4.514-4.096 4.639-7.189l.836.042a9.205 9.205 0 0 1-5.099 7.9c-1.254.626-2.633.919-4.012.919Z"/><path fill="#223893" d="M421.313 384.041a9.354 9.354 0 0 1-4.221-1.003l-24.284-13.542a6.56 6.56 0 0 1-3.051-7.732c1.087-3.26 2.884-5.517 5.35-6.646 2.968-1.379 6.771-1.086 11.369.795l10.741 4.89 8.736 6.896c.459-.167.794-1.379 1.003-2.132.125-.418.209-.752.334-1.044l.293-.669 2.424 3.594c.585.627.543 2.048.418 3.678-.042.376-.042.669-.042.878v2.884c0 3.511-1.964 6.646-5.099 8.234a9.228 9.228 0 0 1-3.971.919Zm-22.026-28.964c-1.421 0-2.675.25-3.804.794-2.257 1.045-3.929 3.134-4.932 6.144-.836 2.549.293 5.391 2.675 6.729l24.284 13.542c2.34 1.212 5.141 1.212 7.481.084 2.884-1.422 4.64-4.264 4.64-7.482v-2.884c0-.251.041-.585.041-.919.084-.92.209-2.675-.209-3.052l-.041-.083-1.547-2.299c0 .042-.042.084-.042.167-.334 1.212-.794 2.759-1.922 2.759h-.126l-8.944-7.064-10.616-4.806c-2.633-1.129-4.932-1.63-6.938-1.63Z"/><path fill="#fff" d="M423.028 373.049a6.45 6.45 0 0 1-1.295.126 5.454 5.454 0 0 1-5.308-5.685l1.755-54.042 1.045-63.154c.042-3.051 2.55-5.475 5.601-5.434 3.051.042 5.475 2.55 5.433 5.601l-1.045 63.279-1.839 54.126a5.449 5.449 0 0 1-4.347 5.183Z"/><path fill="#223893" d="M421.898 373.592h-.209a5.808 5.808 0 0 1-4.138-1.881c-1.086-1.17-1.63-2.675-1.588-4.263l1.756-54.042 1.045-63.154a6.061 6.061 0 0 1 1.797-4.18c1.128-1.087 2.633-1.672 4.221-1.672 3.26.042 5.893 2.759 5.81 6.019l-1.045 63.279-1.756 54.168c-.083 2.759-2.006 5.057-4.722 5.601a5.624 5.624 0 0 1-1.171.125Zm2.759-128.272a5.096 5.096 0 0 0-3.553 1.421c-.961.961-1.546 2.215-1.546 3.552l-1.045 63.154-1.756 54.043c-.083 2.8 2.132 5.141 4.932 5.266.418 0 .794-.042 1.212-.083 2.299-.46 3.971-2.466 4.055-4.807l1.755-54.084 1.045-63.28c.042-2.8-2.215-5.141-5.016-5.182h-.083Z"/><path fill="#151617" d="M401.836 380.029c1.128 0 2.215.46 3.051 1.254l.042.041c.71.669 1.086 1.631 1.086 2.592v2.884c0 3.343-1.88 6.353-4.89 7.857-2.507 1.213-5.433 1.213-7.899-.083l-24.242-13.542a6.088 6.088 0 0 1-2.842-7.231c1.505-4.597 5.517-9.989 16.217-5.601l10.658 4.849 8.819 6.98Z"/><path fill="#EFF4FE" d="M401.837 377.354c1.128 0 2.215.46 3.051 1.254l.042.042c.71.668 1.086 1.63 1.086 2.591v2.884c0 3.344-1.881 6.353-4.89 7.858-2.508 1.212-5.433 1.212-7.899-.084l-24.284-13.542a6.088 6.088 0 0 1-2.842-7.231c1.505-4.597 5.517-9.989 16.217-5.6l10.658 4.848 8.861 6.98Z"/><path fill="#E0E8F7" d="M406.015 380.99c-.042-.877.209-2.884-.125-3.845l-2.174-3.218c-.794-.794-.71 3.427-1.839 3.427l-8.861-7.022-10.658-4.848c-10.658-4.389-14.712 1.003-16.217 5.601 0 .041-.041.125-.041.167a6.357 6.357 0 0 0 2.884 3.636l24.283 13.542c2.466 1.296 5.392 1.296 7.9.084a8.808 8.808 0 0 0 4.848-7.524Z"/><path fill="#223893" d="M397.28 389.851a9.354 9.354 0 0 1-4.221-1.003l-24.284-13.542c-1.504-.836-2.591-2.215-3.093-3.887l-.041-.125.041-.168c0-.041.042-.083.042-.125 1.087-3.26 2.884-5.517 5.35-6.646 2.968-1.379 6.771-1.086 11.369.795l10.658 4.848-.335.752-10.658-4.848c-4.346-1.797-7.983-2.048-10.7-.794-2.257 1.045-3.928 3.135-4.931 6.144v.042c.459 1.379 1.379 2.549 2.674 3.26l24.284 13.542c2.341 1.212 5.141 1.212 7.482.083 2.758-1.337 4.514-4.096 4.639-7.189l.836.042a9.206 9.206 0 0 1-5.099 7.9c-1.254.585-2.633.919-4.013.919Z"/><path fill="#223893" d="M397.28 393.278a9.354 9.354 0 0 1-4.221-1.003l-24.284-13.542a6.56 6.56 0 0 1-3.051-7.732c1.087-3.26 2.884-5.517 5.35-6.646 2.967-1.379 6.771-1.086 11.368.795l10.742 4.89 8.735 6.896c.46-.167.794-1.379 1.003-2.131.126-.418.209-.753.335-1.045l.292-.669 2.425 3.594c.585.627.543 2.048.418 3.678-.042.377-.042.669-.042.878v2.884c0 3.511-1.965 6.646-5.099 8.234a9.228 9.228 0 0 1-3.971.919Zm-22.027-29.006c-1.421 0-2.675.251-3.803.794-2.257 1.045-3.929 3.135-4.932 6.144-.836 2.55.293 5.392 2.675 6.729l24.284 13.542c2.34 1.212 5.14 1.212 7.481.084 2.884-1.421 4.639-4.263 4.639-7.482v-2.884c0-.25.042-.585.042-.919.084-.92.209-2.675-.209-3.051l-.042-.084-1.546-2.299c0 .042-.042.084-.042.167-.334 1.213-.794 2.759-1.922 2.759h-.126l-8.944-7.064-10.616-4.806c-2.592-1.087-4.932-1.63-6.939-1.63Z"/><path fill="#80C0FF" d="M433.642 240.096v-58.473c0-11.661-12.664-18.892-22.695-12.999l-13.876 8.151c-7.942 4.639-15.172 15.966-11.912 26.248l2.967 37.616 45.516-.543Z"/><path fill="#223893" d="m434.059 240.513-46.352-.501-3.887-40.877c0-9.362 4.974-18.056 12.999-22.737l13.876-8.15c4.849-2.842 10.658-2.884 15.548-.084 4.891 2.801 7.774 7.816 7.774 13.459v58.89h.042Zm-45.599-1.337 44.763.501v-58.054c0-5.309-2.758-10.073-7.356-12.706-4.639-2.634-10.114-2.634-14.712.083l-13.918 8.067c-7.774 4.556-12.623 12.998-12.623 21.985l3.846 40.124Z"/><path fill="#fff" d="M398.993 382.286a6.459 6.459 0 0 1-1.295.125 5.453 5.453 0 0 1-5.309-5.684l1.756-54.042 1.045-63.154a5.513 5.513 0 0 1 5.601-5.434c3.051.042 5.475 2.55 5.433 5.601l-1.045 63.279-1.755 54.084c-.168 2.592-2.007 4.723-4.431 5.225Z"/><path fill="#223893" d="M397.863 382.829h-.209c-3.26-.125-5.851-2.842-5.726-6.102l1.756-54.043 1.045-63.154c.041-3.218 2.716-5.809 5.935-5.809h.083c3.26.041 5.893 2.758 5.81 6.018l-1.045 63.28-1.755 54.084c-.084 2.758-2.007 5.057-4.723 5.601a5.335 5.335 0 0 1-1.171.125Zm2.759-128.314c-2.759 0-5.058 2.215-5.099 5.015l-1.045 63.154-1.756 54.043c-.083 2.8 2.132 5.141 4.932 5.266.418 0 .794-.042 1.212-.084 2.299-.459 3.971-2.465 4.055-4.806l1.755-54.084 1.045-63.28c.042-2.8-2.215-5.141-5.016-5.182-.041-.042-.041-.042-.083-.042Z"/><path fill="#E0E8F7" d="m443.296 302.874-9.78-68.045s-18.641 12.539-46.059-1.546l-11.829 84.679c-.083.46.418.752.836.543 24.367-12.413 45.6 14.086 66.08-13.458.502-.627.794-1.379.752-2.173Z"/><path fill="#223893" d="M376.173 319.007a1 1 0 0 1-.585-.209c-.292-.209-.418-.544-.334-.92l11.87-85.222.543.251c14.044 7.188 25.663 7.23 32.978 6.018 7.899-1.337 12.58-4.43 12.622-4.43l.543-.376.084.668 9.78 68.044v.042c.042.836-.251 1.714-.794 2.424-11.995 16.092-24.2 13.96-37.073 11.703-9.321-1.63-18.976-3.302-29.132 1.881-.125.084-.334.126-.502.126Zm11.62-85.056-11.745 84.094v.084c.042.042.125.042.209 0 10.449-5.308 20.229-3.595 29.675-1.965 12.665 2.216 24.576 4.305 36.279-11.368.418-.585.669-1.212.627-1.881l-9.696-67.375c-1.463.877-5.768 3.093-12.372 4.221-7.273 1.254-18.934 1.212-32.977-5.81Z"/><path fill="#fff" d="M411.658 182.876a7.099 7.099 0 0 1-7.105-7.105V139.45a7.099 7.099 0 0 1 7.105-7.105 7.099 7.099 0 0 1 7.105 7.105v36.321a7.099 7.099 0 0 1-7.105 7.105Z"/><path fill="#223893" d="M411.658 183.294c-4.138 0-7.523-3.385-7.523-7.523V139.45c0-4.138 3.385-7.523 7.523-7.523s7.523 3.385 7.523 7.523v36.321a7.518 7.518 0 0 1-7.523 7.523Zm0-50.531c-3.678 0-6.687 3.009-6.687 6.687v36.321c0 3.678 3.009 6.687 6.687 6.687 3.678 0 6.687-3.009 6.687-6.687V139.45c0-3.678-3.009-6.687-6.687-6.687ZM414.21 244.526c-4.347 0-8.36-.585-11.745-1.338-9.028-2.006-15.548-5.6-15.59-5.642l.418-.711c.251.126 25.621 14.086 46.728 1.839l.418.711c-6.729 3.887-13.793 5.141-20.229 5.141Z"/><path fill="#fff" d="m384.24 199.093.962 9.99s23.656-10.826 22.862-20.857c-.794-10.031-10.992-11.494-10.992-11.494-7.983 4.64-12.832 13.166-12.832 22.361Z"/><path fill="#223893" d="m384.823 209.668-1.003-10.616c0-9.32 4.974-18.014 12.999-22.737l.125-.084h.126c.125 0 10.532 1.589 11.368 11.871.836 10.198-22.11 20.814-23.113 21.274l-.502.292Zm-.167-10.616.878 9.362c3.469-1.671 22.779-11.368 22.068-20.187-.71-9.07-9.237-10.867-10.491-11.076-7.69 4.598-12.455 12.957-12.455 21.901Z"/><path fill="#fff" d="M364.553 222.458c-.46 0-.92-.042-1.379-.084-3.219-.46-6.019-2.466-7.44-5.392-9.362-19.351-11.745-24.868-13.5-28.212-1.923-.711-5.559-1.881-8.652-2.884-2.842-.878-4.556-3.804-3.845-6.687.794-3.052 3.97-4.807 6.98-3.888 11.201 3.511 11.995 4.138 12.747 4.723 1.254.962-1.128-3.218 5.81 10.909 2.717 5.476 5.726 11.703 8.276 16.928.627 1.254 2.299 1.504 3.218.459l26.123-29.09c2.048-2.257 5.517-2.466 7.774-.418 2.257 2.048 2.466 5.517.418 7.774l-29.299 32.643a9.724 9.724 0 0 1-7.231 3.219Z"/><path fill="#223893" d="M364.553 222.875c-.46 0-.961-.042-1.421-.083a10.138 10.138 0 0 1-7.732-5.643c-5.267-10.867-8.276-17.303-10.282-21.567-1.505-3.218-2.383-5.057-3.135-6.52a228.24 228.24 0 0 0-8.485-2.8c-3.093-.961-4.89-4.138-4.096-7.189a5.795 5.795 0 0 1 2.884-3.678 5.814 5.814 0 0 1 4.64-.46c11.243 3.553 12.037 4.138 12.873 4.807.961.752 1.881 2.633 3.511 6.102a166.718 166.718 0 0 0 2.424 4.932c2.173 4.347 4.556 9.237 6.645 13.542l1.631 3.385c.209.46.668.794 1.17.836.501.084 1.003-.125 1.379-.501l17.596-19.603 5.81-6.311a33.274 33.274 0 0 1 8.401-6.687l4.723-2.675.418.71-4.723 2.675c-3.051 1.756-5.81 3.929-8.192 6.52l-5.768 6.312-17.596 19.602c-.544.585-1.338.878-2.09.752-.794-.125-1.463-.585-1.797-1.337l-1.63-3.386c-2.09-4.305-4.472-9.195-6.646-13.542-.961-1.922-1.713-3.51-2.424-4.973-1.546-3.219-2.466-5.183-3.302-5.81-.71-.543-1.505-1.17-12.622-4.639-1.338-.418-2.759-.293-3.971.418-1.212.668-2.09 1.797-2.466 3.176-.669 2.633.878 5.35 3.553 6.186 3.343 1.045 6.854 2.215 8.693 2.884l.167.042.084.125c.794 1.505 1.63 3.344 3.218 6.687 2.007 4.264 5.016 10.7 10.282 21.525a9.433 9.433 0 0 0 7.106 5.183c.418.042.877.084 1.295.084a9.344 9.344 0 0 0 6.938-3.093l21.818-24.284.627.544-21.818 24.283c-2.048 2.257-4.806 3.469-7.69 3.469Z"/><path fill="#223893" d="M410.989 132.387c-3.72.335-6.478 3.553-6.478 7.273 0 1.755 4.932 5.809 6.395 6.812l-8.443 48.693s28.505-.669 31.013-.669l-6.228-25.746-7.565-29.884c-1.379-4.765-4.472-6.855-8.694-6.479Z"/><path fill="#E0E8F7" d="M254.103 331.232c0 1.192-.794 2.383-2.383 3.291l-.738.454-6.468 3.745c-3.178 1.816-8.341 1.816-11.519 0-1.589-.908-3.688-1.362-5.731-1.362-2.099 0-4.142.454-5.731 1.362-3.177 1.816-3.177 4.823 0 6.639.284.17.511.34.738.51 1.021.795 1.589 1.703 1.645 2.667v.398c-.113 1.134-.908 2.212-2.383 3.064l-.681.397-40.57 23.434c-3.178 1.816-8.342 1.816-11.519 0-1.589-.908-3.688-1.362-5.731-1.362-2.1 0-4.142.454-5.731 1.362-3.178 1.816-3.178 4.823 0 6.639.284.17.511.341.738.511 1.078.851 1.645 1.816 1.645 2.837 0 1.191-.794 2.383-2.383 3.291l-.681.397-6.525 3.802c-3.178 1.816-8.341 1.816-11.519 0L37.462 335.034l-.738-.454c-1.475-.851-2.27-1.929-2.383-3.008-.114-1.305.68-2.61 2.383-3.574l7.263-4.199c3.177-1.816 8.341-1.816 11.462 0 1.589.908 3.688 1.362 5.73 1.362 1.76 0 3.519-.341 4.994-1.022.284-.113.51-.227.738-.397 2.894-1.702 3.12-4.369.68-6.185-.226-.17-.453-.34-.68-.454-1.476-.851-2.27-1.986-2.383-3.064-.114-1.248.68-2.553 2.383-3.518l41.308-23.832c3.178-1.815 8.341-1.815 11.519 0 1.588.908 3.688 1.362 5.731 1.362 1.759 0 3.574-.34 4.993-1.021.227-.114.511-.227.738-.341 2.893-1.702 3.12-4.369.68-6.185-.226-.17-.453-.34-.68-.453-1.589-.908-2.384-2.1-2.384-3.292 0-1.191.795-2.383 2.384-3.291l7.263-4.198c3.177-1.816 8.341-1.816 11.518 0l101.739 58.728c1.589.851 2.383 2.042 2.383 3.234Z"/><path fill="#E0E8F7" stroke="#223893" stroke-linecap="round" stroke-linejoin="round" stroke-miterlimit="10" stroke-width=".787" d="M223.861 334.693v.454-.454ZM131.258 265.354c-.227.114-.511.284-.737.397-1.079-.851-1.646-1.815-1.646-2.837v-7.49c0 1.192.794 2.383 2.383 3.291.227.171.511.284.681.454 2.44 1.873 2.213 4.483-.681 6.185ZM66.97 302.464c-.228.113-.512.283-.739.397-1.02-.795-1.532-1.646-1.645-2.554v-7.546c.113 1.135.851 2.213 2.383 3.064.227.17.51.284.681.454 2.44 1.872 2.213 4.482-.68 6.185Z"/><path fill="#E0E8F7" stroke="#223893" stroke-linecap="round" stroke-linejoin="round" stroke-miterlimit="10" stroke-width=".787" d="m250.927 313.698-6.469 3.745c-3.177 1.816-8.341 1.816-11.518 0-1.589-.908-3.689-1.361-5.731-1.361-2.1 0-4.143.453-5.731 1.361-3.178 1.816-3.178 4.823 0 6.639.283.17.51.341.737.511-.227.113-.51.227-.737.397-2.894 1.702-3.121 4.369-.681 6.185l-40.571 23.434c-3.177 1.816-8.341 1.816-11.519 0-1.588-.907-3.688-1.361-5.73-1.361-2.1 0-4.143.454-5.731 1.361-3.178 1.816-3.178 4.824 0 6.639.283.17.51.341.737.511-.283.113-.51.227-.737.397-2.951 1.702-3.178 4.369-.681 6.185l-6.526 3.802c-3.177 1.816-8.341 1.816-11.518 0L37.463 313.755l6.468-3.745c3.178-1.816 8.342-1.816 11.462 0 1.59.908 3.689 1.362 5.731 1.362 2.1 0 4.142-.454 5.731-1.362 3.178-1.816 3.178-4.823 0-6.639-.283-.17-.51-.34-.737-.51.283-.114.51-.227.737-.398 2.894-1.702 3.121-4.369.681-6.184l40.571-23.435c3.177-1.816 8.341-1.816 11.519 0 1.588.908 3.688 1.362 5.73 1.362 2.1 0 4.143-.454 5.731-1.362 3.178-1.816 3.178-4.823 0-6.639-.283-.17-.51-.34-.737-.51.227-.114.51-.227.737-.341 2.894-1.702 3.121-4.369.681-6.185l6.526-3.802c3.177-1.815 8.341-1.815 11.518 0l101.115 58.331Z"/><path fill="#fff" stroke="#223893" stroke-linecap="round" stroke-linejoin="round" stroke-miterlimit="10" stroke-width=".787" d="M254.105 309.954c0 1.191-.794 2.383-2.383 3.291l-.738.454-6.468 3.745c-3.178 1.815-8.341 1.815-11.519 0-1.589-.908-3.688-1.362-5.731-1.362-2.099 0-4.142.454-5.731 1.362-3.178 1.815-3.178 4.823 0 6.638.284.171.511.341.738.511 1.021.794 1.588 1.702 1.645 2.667v.397c-.113 1.135-.908 2.213-2.383 3.064l-.681.397-40.571 23.435c-3.177 1.816-8.341 1.816-11.518 0-1.589-.908-3.688-1.362-5.731-1.362-2.1 0-4.142.454-5.731 1.362-3.178 1.816-3.178 4.823 0 6.639.284.17.511.34.738.51 1.078.852 1.645 1.816 1.645 2.838 0 1.191-.794 2.383-2.383 3.291l-.681.397-6.525 3.802c-3.178 1.815-8.341 1.815-11.519 0L37.464 313.755l-.738-.454c-1.475-.851-2.27-1.929-2.383-3.007-.114-1.305.68-2.61 2.383-3.575l7.263-4.199c3.177-1.815 8.34-1.815 11.462 0 1.588.908 3.688 1.362 5.73 1.362 1.76 0 3.519-.34 4.994-1.021.284-.114.51-.227.738-.397 2.894-1.703 3.12-4.369.68-6.185-.226-.17-.453-.341-.68-.454-1.476-.851-2.27-1.986-2.383-3.064-.114-1.249.68-2.554 2.383-3.518l41.308-23.832c3.178-1.816 8.341-1.816 11.519 0 1.588.908 3.688 1.362 5.731 1.362 1.759 0 3.574-.341 4.993-1.022.227-.113.511-.226.738-.34 2.893-1.702 3.12-4.369.68-6.185-.227-.17-.454-.34-.68-.454-1.589-.908-2.384-2.099-2.384-3.291 0-1.191.795-2.383 2.384-3.291l7.263-4.199c3.177-1.816 8.341-1.816 11.518 0l101.739 58.728c1.589.851 2.383 2.043 2.383 3.235Z"/><path fill="#E0E8F7" stroke="#223893" stroke-linecap="round" stroke-linejoin="round" stroke-miterlimit="10" stroke-width=".787" d="M254.106 309.954v7.49c0 1.191-.795 2.383-2.384 3.291l-7.263 4.199c-3.177 1.815-8.341 1.815-11.518 0-1.589-.908-3.688-1.362-5.731-1.362-1.759 0-3.518.34-4.993 1.021a8.485 8.485 0 0 0-.738-.511c-3.178-1.815-3.178-4.823 0-6.638 1.589-.908 3.688-1.362 5.731-1.362 2.099 0 4.142.454 5.731 1.362 3.177 1.815 8.341 1.815 11.518 0l6.469-3.745.738-.454c1.645-.851 2.44-2.043 2.44-3.291Z"/><path stroke="#223893" stroke-linecap="round" stroke-linejoin="round" stroke-miterlimit="10" stroke-width=".787" d="M254.105 317.785v-.285"/><path fill="#E0E8F7" stroke="#223893" stroke-linecap="round" stroke-linejoin="round" stroke-miterlimit="10" stroke-width=".787" d="M223.862 327.657v7.49c-.057 1.135-.851 2.27-2.383 3.121L180.17 362.1c-3.177 1.815-8.341 1.815-11.518 0-1.589-.908-3.689-1.362-5.731-1.362-1.759 0-3.518.34-4.994 1.021-.227-.17-.453-.34-.737-.51-3.178-1.816-3.178-4.824 0-6.639 1.589-.908 3.688-1.362 5.731-1.362 2.099 0 4.142.454 5.731 1.362 3.177 1.815 8.341 1.815 11.518 0l40.571-23.435.681-.397c1.532-.908 2.326-1.986 2.44-3.121Z"/><path stroke="#223893" stroke-linecap="round" stroke-linejoin="round" stroke-miterlimit="10" stroke-width=".787" d="M223.861 327.658v-.398"/><path fill="#E0E8F7" stroke="#223893" stroke-linecap="round" stroke-linejoin="round" stroke-miterlimit="10" stroke-width=".787" d="M159.572 364.54v7.49c0 1.191-.795 2.383-2.383 3.291l-7.263 4.199c-3.178 1.815-8.342 1.815-11.519 0L36.725 320.791c-1.475-.851-2.27-1.929-2.383-3.007v-7.49c.113 1.078.908 2.213 2.383 3.008l.738.453 101.001 58.331c3.177 1.816 8.341 1.816 11.518 0l6.526-3.801.681-.398c1.588-.964 2.383-2.156 2.383-3.347Z"/><path fill="#223893" d="M203.774 330.494c.878 0 1.589-.406 1.589-.908 0-.501-.711-.908-1.589-.908-.877 0-1.588.407-1.588.908 0 .502.711.908 1.588.908ZM198.044 333.785c.877 0 1.589-.406 1.589-.908 0-.501-.712-.908-1.589-.908-.878 0-1.589.407-1.589.908 0 .502.711.908 1.589.908ZM192.313 337.133c.878 0 1.589-.407 1.589-.908 0-.501-.711-.908-1.589-.908-.877 0-1.588.407-1.588.908 0 .501.711.908 1.588.908ZM186.581 340.424c.877 0 1.589-.406 1.589-.908 0-.501-.712-.908-1.589-.908s-1.589.407-1.589.908c0 .502.712.908 1.589.908ZM180.85 343.715c.878 0 1.589-.406 1.589-.908 0-.501-.711-.908-1.589-.908-.877 0-1.588.407-1.588.908 0 .502.711.908 1.588.908Z"/><path stroke="#223893" stroke-linecap="round" stroke-linejoin="round" stroke-miterlimit="10" stroke-width=".787" d="m78.716 328.281-4.823-2.837M103.454 342.524l-19.122-11.008M119.344 351.716l-10.951-6.355M129.385 350.696v-.172M96.588 319.828s0-.059 0 0M122.633 268.249v-.058"/><path fill="#3D93FA" stroke="#223893" stroke-linecap="round" stroke-linejoin="round" stroke-miterlimit="10" stroke-width=".787" d="M221.931 302.804v7.547c0 .454-.284.851-.851 1.191l-16.626 9.59c-1.135.681-2.95.681-4.085 0l-3.121-1.816c-1.135-.624-2.951-.624-4.085 0l-26.783 15.491-3.745 2.156c-.851.454-1.021 1.191-.624 1.759l-12.88 7.433a4.337 4.337 0 0 1-2.043.511H133.98c-.68 0-1.361-.114-1.872-.397l2.213-1.305c1.135-.625 1.135-1.703 0-2.327l-3.915-2.27 3.915-2.269c1.135-.624 1.135-1.703 0-2.327l-13.221-7.603c-1.135-.624-2.951-.624-4.085 0l-1.93 1.078c-1.135.681-2.95.681-4.085 0l-13.448-7.774c-.057-.056-.17-.113-.227-.17l-2.156-1.248c-.397-.284-.568-.624-.568-1.022v.681l-10.44-6.014c-1.135-.625-2.95-.625-4.086 0l-6.184 3.518c-1.135.624-2.951.624-4.086 0l-3.745-2.157c-.567-.283-.851-.737-.851-1.191v-7.547c0-.454.284-.851.851-1.191l16.626-9.59c1.134-.624 2.95-.624 4.085 0l3.12 1.816c1.136.624 2.951.624 4.086 0l30.584-17.647c1.135-.624 1.135-1.702 0-2.326l-3.121-1.816c-.283-.17-.51-.341-.624-.568l3.745-2.156c.851-.454 1.022-1.191.624-1.759l12.881-7.433a4.334 4.334 0 0 1 2.043-.511h13.05c.681 0 1.362.114 1.873.398l-2.213 1.305c-1.135.624-1.135 1.702 0 2.326l3.915 2.27-3.915 2.269c-1.135.625-1.135 1.703 0 2.327l13.221 7.603c1.135.624 2.95.624 4.085 0l1.929-1.135c1.135-.624 2.951-.624 4.086 0l13.505 7.774 2.212 1.248c.114.057.171.114.284.171.851.624.738 1.588-.284 2.156l-1.929 1.135c-1.135.624-1.135 1.702 0 2.326l13.221 7.604c1.135.624 2.951.624 4.086 0l6.184-3.575c1.135-.624 2.951-.624 4.086 0l3.745 2.156c.34.454.681.851.681 1.305Z"/><path fill="#4CD9ED" stroke="#223893" stroke-linecap="round" stroke-linejoin="round" stroke-miterlimit="10" stroke-width=".787" d="M221.931 295.882v7.547c0 .453-.284.851-.851 1.191l-16.626 9.59c-1.135.624-2.95.624-4.085 0l-3.121-1.816c-1.135-.624-2.951-.624-4.085 0l-30.584 17.647c-1.135.624-1.135 1.702 0 2.326l3.12 1.816c.284.17.511.34.625.567.113.17.17.397.17.568 0 .454-.284.851-.851 1.191l-3.745 2.156-12.881 7.434c-.51.283-1.248.51-2.042.51h-13.108c-.681 0-1.362-.113-1.872-.397-.057-.057-.114-.057-.171-.113l-3.745-2.157c-.567-.34-.851-.737-.851-1.191 0-.454.284-.851.851-1.192l2.213-1.305 3.916-2.27c1.134-.624 1.134-1.702 0-2.326l-13.221-7.603c-1.135-.625-2.951-.625-4.086 0l-1.929 1.078c-1.135.681-2.951.681-4.085 0l-13.335-7.66-2.156-1.249c-.114-.057-.17-.113-.284-.17-.397-.284-.567-.624-.567-1.021 0-.398.284-.852.85-1.135l1.93-1.078c1.135-.625 1.135-1.703 0-2.327l-13.22-7.603c-1.136-.624-2.951-.624-4.086 0l-6.185 3.575c-1.135.624-2.95.624-4.085 0l-3.745-2.157c-.568-.283-.852-.737-.852-1.191v-7.547c0-.454.284-.851.852-1.192l16.625-9.589c1.135-.624 2.95-.624 4.085 0l3.121 1.816c1.135.624 2.95.624 4.086 0l26.612-15.377.17-.114 3.745-2.156c.851-.454 1.021-1.192.624-1.759-.113-.227-.34-.397-.624-.567l-3.121-1.816c-.567-.341-.851-.738-.851-1.192 0-.454.284-.851.851-1.191l16.626-9.59a4.33 4.33 0 0 1 2.042-.51h13.164c.795 0 1.476.17 2.043.51l3.745 2.156c.568.341.851.738.851 1.192 0 .454-.283.851-.851 1.192l-3.915 2.269-2.213 1.305c-1.135.624-1.135 1.703 0 2.327l3.915 2.269 9.249 5.334c1.135.624 2.951.624 4.086 0l1.929-1.135c1.135-.624 2.95-.624 4.085 0l15.718 9.079c.567.341.794.738.851 1.135v.057c0 .454-.284.851-.851 1.191l-1.929 1.135c-1.022.568-1.135 1.532-.284 2.156.057.057.17.114.284.171l2.213 1.248.567.34 10.441 6.015c1.134.624 2.95.624 4.085 0l6.185-3.575c1.135-.624 2.95-.624 4.085 0l3.745 2.156c.397.171.738.625.738 1.022Z"/><path fill="#3D93FA" stroke="#223893" stroke-linecap="round" stroke-linejoin="round" stroke-miterlimit="10" stroke-width=".787" d="M166.549 335.431v6.923c0 .397-.284.851-.851 1.135l-16.626 9.589c-.51.34-1.248.511-2.043.511h-13.107c-.794 0-1.475-.171-2.043-.511l-3.745-2.156c-.567-.341-.851-.738-.851-1.192v-6.866c0 .454.284.852.851 1.192l3.745 2.156c.057.057.114.057.171.114.51.227 1.191.397 1.872.397h13.107c.738 0 1.476-.17 2.043-.511l12.881-7.433 3.745-2.156c.567-.341.851-.795.851-1.192Z"/><path stroke="#223893" stroke-linecap="round" stroke-linejoin="round" stroke-miterlimit="10" stroke-width=".787" d="M127.342 349.901v-.171"/><path fill="#3D93FA" stroke="#223893" stroke-linecap="round" stroke-linejoin="round" stroke-miterlimit="10" stroke-width=".787" d="m134.319 338.098-3.915 2.27-9.249-5.334c-1.135-.624-2.95-.624-4.085 0l-1.93 1.135c-1.134.624-2.95.624-4.085 0l-15.718-9.079c-.567-.341-.85-.738-.85-1.135v-6.923c0 .341.17.681.567 1.022.056.057.17.113.284.17l2.156 1.248 13.504 7.831c1.135.681 2.951.681 4.086 0l1.929-1.078c1.135-.624 2.951-.624 4.085 0l13.221 7.603c1.135.568 1.135 1.646 0 2.27ZM124.505 272.788l-3.745 2.156-.17.114v-7.604c0 .454.284.851.851 1.192l3.121 1.815c.284.171.51.341.624.568.34.567.17 1.305-.681 1.759Z"/><path stroke="#223893" stroke-linecap="round" stroke-linejoin="round" stroke-miterlimit="10" stroke-width=".787" d="M120.531 267.455v-.058"/><path fill="#3D93FA" stroke="#223893" stroke-linecap="round" stroke-linejoin="round" stroke-miterlimit="10" stroke-width=".787" d="M159.797 260.021v6.866c0 .453-.283.851-.851 1.191l-2.213 1.305-3.915-2.269c-1.135-.625-1.135-1.703 0-2.327l2.213-1.305 3.915-2.27c.568-.34.851-.737.851-1.191Z"/><path stroke="#223893" stroke-linecap="round" stroke-linejoin="round" stroke-miterlimit="10" stroke-width=".787" d="M159.797 267.397v-.454"/><path fill="#3D93FA" stroke="#223893" stroke-linecap="round" stroke-linejoin="round" stroke-miterlimit="10" stroke-width=".787" d="M192.593 283.852v6.242l-.567-.341c-.114-.056-.17-.113-.284-.17l-2.213-1.248c-.851-.624-.737-1.589.284-2.156l1.929-1.135c.568-.341.851-.738.851-1.192Z"/><path fill="#3D93FA" stroke="#223893" stroke-miterlimit="10" stroke-width=".787" d="M181.926 300.25v5.221s-3.518 4.709-12.199 4.709c-8.682 0-12.2-4.709-12.2-4.709v-5.221s3.518 4.71 12.2 4.71c8.681-.057 12.199-4.71 12.199-4.71Z"/><path fill="#80C0FF" stroke="#223893" stroke-linecap="round" stroke-linejoin="round" stroke-miterlimit="10" stroke-width=".787" d="M181.926 291.058v9.193s-3.518 4.709-12.199 4.709c-8.682 0-12.2-4.709-12.2-4.709v-9.193s3.518 4.71 12.2 4.71c8.681 0 12.199-4.71 12.199-4.71Z"/><path fill="#fff" stroke="#223893" stroke-linecap="round" stroke-linejoin="round" stroke-miterlimit="10" stroke-width=".787" d="M181.927 249.523v41.535s-3.518 4.71-12.2 4.71c-2.893 0-5.22-.511-7.036-1.249l.171-.056v-41.422l6.865-30.187 12.2 26.669Z"/><path fill="#E0E8F7" stroke="#223893" stroke-linecap="round" stroke-linejoin="round" stroke-miterlimit="10" stroke-width=".787" d="m169.727 222.797-6.923 30.244v41.422l-.17.056c-3.631-1.361-5.163-3.461-5.163-3.461v-41.535l12.256-26.726Z"/><path stroke="#223893" stroke-miterlimit="10" stroke-width=".787" d="M157.471 249.523s3.518 4.71 12.199 4.71c8.682 0 12.2-4.71 12.2-4.71"/><path fill="#3D93FA" stroke="#223893" stroke-miterlimit="10" stroke-width=".787" d="M105.213 300.25v5.221s3.518 4.709 12.199 4.709c8.682 0 12.2-4.709 12.2-4.709v-5.221s-3.518 4.71-12.2 4.71c-8.681-.057-12.199-4.71-12.199-4.71Z"/><path fill="#80C0FF" stroke="#223893" stroke-linecap="round" stroke-linejoin="round" stroke-miterlimit="10" stroke-width=".787" d="M105.213 291.058v9.193s3.518 4.709 12.199 4.709c8.682 0 12.2-4.709 12.2-4.709v-9.193s-3.518 4.71-12.2 4.71c-8.681 0-12.199-4.71-12.199-4.71Z"/><path fill="#E0E8F7" stroke="#223893" stroke-linecap="round" stroke-linejoin="round" stroke-miterlimit="10" stroke-width=".787" d="M105.213 249.523v41.535s3.518 4.71 12.199 4.71c2.894 0 5.221-.511 7.036-1.249l-.17-.056v-41.422l-6.866-30.244-12.199 26.726Z"/><path fill="#E0E8F7" stroke="#223893" stroke-linecap="round" stroke-linejoin="round" stroke-miterlimit="10" stroke-width=".787" d="m117.412 222.797 6.866 30.187v41.422l.17.057c3.632-1.362 5.164-3.462 5.164-3.462v-41.535l-12.2-26.669Z"/><path stroke="#223893" stroke-miterlimit="10" stroke-width=".787" d="M129.612 249.523s-3.518 4.71-12.2 4.71c-8.681 0-12.199-4.71-12.199-4.71"/><path fill="#3D93FA" stroke="#223893" stroke-miterlimit="10" stroke-width=".787" d="M169.728 220.471v81.027c0 2.724-1.248 5.391-3.745 7.774-1.078 1.022-2.383 1.986-3.915 2.837-10.213 5.901-26.782 5.901-36.996 0-1.532-.908-2.837-1.872-3.915-2.837-2.497-2.383-3.745-5.107-3.745-7.774v-81.027c0 3.234 1.702 6.298 5.391 9.135.113.114.283.227.454.341.567.397 1.191.794 1.815 1.191 10.214 5.901 26.783 5.901 36.996 0a25.13 25.13 0 0 0 1.816-1.191c3.858-2.724 5.844-6.129 5.844-9.476Z"/><path fill="#E0E8F7" stroke="#223893" stroke-linecap="round" stroke-linejoin="round" stroke-miterlimit="10" stroke-width=".787" d="M169.728 116.86v72.8c0 2.724-1.248 5.391-3.745 7.774-1.078 1.021-2.383 1.986-3.915 2.837-10.213 5.901-26.782 5.901-36.996 0a24.986 24.986 0 0 1-3.915-2.837c-2.497-2.383-3.745-5.107-3.745-7.774v-72.8c0 3.234 1.702 6.298 5.391 9.135.113.114.283.227.454.341.567.397 1.191.794 1.815 1.191 10.214 5.902 26.783 5.902 36.996 0a25.13 25.13 0 0 0 1.816-1.191c3.858-2.724 5.844-6.128 5.844-9.476Z"/><path fill="#80C0FF" stroke="#223893" stroke-linecap="round" stroke-linejoin="round" stroke-miterlimit="10" stroke-width=".787" d="M169.728 189.66v32.173c0 2.724-1.248 5.39-3.745 7.774-1.078 1.021-2.383 1.986-3.915 2.837-10.213 5.901-26.782 5.901-36.996 0a24.986 24.986 0 0 1-3.915-2.837c-2.497-2.384-3.745-5.107-3.745-7.774V189.66c0 3.234 1.702 6.299 5.391 9.136.113.113.283.227.454.34.567.397 1.191.794 1.815 1.192 10.214 5.901 26.783 5.901 36.996 0a25.468 25.468 0 0 0 1.816-1.192c3.858-2.724 5.844-6.128 5.844-9.476Z"/><path stroke="#223893" stroke-linecap="round" stroke-linejoin="round" stroke-miterlimit="10" stroke-width=".787" d="M169.728 134.847c0 2.724-1.248 5.391-3.745 7.774-1.078 1.021-2.383 1.986-3.915 2.837-10.213 5.901-26.782 5.901-36.996 0a24.986 24.986 0 0 1-3.915-2.837c-2.497-2.383-3.745-5.107-3.745-7.774M169.728 174.567c0 2.724-1.248 5.39-3.745 7.774-1.078 1.021-2.383 1.986-3.915 2.837-10.213 5.901-26.782 5.901-36.996 0a24.986 24.986 0 0 1-3.915-2.837c-2.497-2.384-3.745-5.107-3.745-7.774M169.728 194.256c0 2.723-1.248 5.39-3.745 7.774-1.078 1.021-2.383 1.986-3.915 2.837-10.213 5.901-26.782 5.901-36.996 0a24.986 24.986 0 0 1-3.915-2.837c-2.497-2.384-3.745-5.107-3.745-7.774"/><path stroke="#223893" stroke-linecap="round" stroke-linejoin="round" stroke-miterlimit="10" stroke-width=".787" d="M169.728 198.853c0 2.723-1.248 5.39-3.745 7.773-1.078 1.022-2.383 1.986-3.915 2.837-10.213 5.902-26.782 5.902-36.996 0-1.532-.908-2.837-1.872-3.915-2.837-2.497-2.383-3.745-5.107-3.745-7.773"/><path stroke="#223893" stroke-linecap="round" stroke-linejoin="round" stroke-miterlimit="10" stroke-width=".787" d="M169.728 203.448c0 2.724-1.248 5.391-3.745 7.774-1.078 1.021-2.383 1.986-3.915 2.837-10.213 5.901-26.782 5.901-36.996 0-1.532-.908-2.837-1.872-3.915-2.837-2.497-2.383-3.745-5.107-3.745-7.774"/><path stroke="#223893" stroke-linecap="round" stroke-linejoin="round" stroke-miterlimit="10" stroke-width=".787" d="M169.728 208.045c0 2.724-1.248 5.39-3.745 7.774-1.078 1.021-2.383 1.986-3.915 2.837-10.213 5.901-26.782 5.901-36.996 0a24.986 24.986 0 0 1-3.915-2.837c-2.497-2.384-3.745-5.107-3.745-7.774"/><path stroke="#223893" stroke-linecap="round" stroke-linejoin="round" stroke-miterlimit="10" stroke-width=".787" d="M169.728 212.641c0 2.723-1.248 5.39-3.745 7.773-1.078 1.022-2.383 1.986-3.915 2.837-10.213 5.902-26.782 5.902-36.996 0a24.858 24.858 0 0 1-3.915-2.837c-2.497-2.383-3.745-5.106-3.745-7.773"/><path stroke="#223893" stroke-linecap="round" stroke-linejoin="round" stroke-miterlimit="10" stroke-width=".787" d="M169.728 217.236c0 2.724-1.248 5.391-3.745 7.774-1.078 1.021-2.383 1.986-3.915 2.837-10.213 5.901-26.782 5.901-36.996 0-1.532-.908-2.837-1.872-3.915-2.837-2.497-2.383-3.745-5.107-3.745-7.774"/><path fill="#fff" stroke="#223893" stroke-linecap="round" stroke-linejoin="round" stroke-miterlimit="10" stroke-width=".787" d="M169.728 116.86c0 3.347-1.929 6.752-5.844 9.475-.567.398-1.192.795-1.816 1.192-10.213 5.901-26.782 5.901-36.996 0-.681-.397-1.248-.738-1.815-1.192-.171-.113-.284-.227-.454-.34-3.689-2.894-5.391-5.901-5.391-9.135 0-3.859 2.554-7.717 7.66-10.668 10.214-5.901 26.783-5.901 36.996 0 5.107 2.951 7.66 6.809 7.66 10.668Z"/><path fill="#80C0FF" stroke="#223893" stroke-linecap="round" stroke-linejoin="round" stroke-miterlimit="10" stroke-width=".787" d="M164.624 99.383v15.321c0 2.156-1.021 4.369-3.007 6.298-.851.794-1.929 1.589-3.121 2.326-8.228 4.767-21.562 4.767-29.79 0-1.248-.737-2.269-1.475-3.12-2.326-2.043-1.929-3.065-4.085-3.065-6.298v-15.32c0 2.609 1.362 5.049 4.37 7.376.113.113.227.17.34.283.454.341.965.625 1.475.965 8.228 4.766 21.562 4.766 29.79 0a13.139 13.139 0 0 0 1.475-.965c3.064-2.212 4.653-4.936 4.653-7.66Z"/><path fill="#E0E8F7" stroke="#223893" stroke-linecap="round" stroke-linejoin="round" stroke-miterlimit="10" stroke-width=".787" d="M128.647 108.008a13.139 13.139 0 0 1 0 0Z"/><path stroke="#223893" stroke-linecap="round" stroke-linejoin="round" stroke-miterlimit="10" stroke-width=".787" d="M156.225 109.086v6.299l2.099 2.099.114 5.845M128.875 108.122v6.071l2.043 2.043v8.227"/><path fill="#223893" d="M161.866 113.367c.27-.634.185-1.278-.19-1.437-.375-.16-.898.225-1.168.86-.27.634-.185 1.278.19 1.437.375.16.898-.225 1.168-.86ZM127.092 118.344c.375-.16.46-.803.19-1.438-.27-.634-.793-1.019-1.168-.859-.375.159-.46.803-.19 1.437.27.635.793 1.02 1.168.86Z"/><path fill="#fff" stroke="#223893" stroke-linecap="round" stroke-linejoin="round" stroke-miterlimit="10" stroke-width=".787" d="M164.622 99.383c0 2.724-1.588 5.448-4.709 7.661-.454.34-.965.624-1.476.964-8.227 4.767-21.562 4.767-29.789 0a13.145 13.145 0 0 1-1.476-.964c-.113-.114-.226-.17-.34-.284-2.951-2.326-4.369-4.766-4.369-7.377 0-3.12 2.043-6.241 6.185-8.567 8.227-4.767 21.562-4.767 29.789 0 4.143 2.383 6.185 5.504 6.185 8.567Z"/><path fill="#80C0FF" stroke="#223893" stroke-linecap="round" stroke-linejoin="round" stroke-miterlimit="10" stroke-width=".787" d="M155.26 101.54c-.568 1.021-1.589 2.043-3.008 2.837-4.766 2.78-12.54 2.78-17.363 0-1.418-.851-2.44-1.816-3.007-2.837-1.362-2.44-.341-5.22 3.007-7.15 4.767-2.78 12.54-2.78 17.363 0 3.348 1.93 4.313 4.71 3.008 7.15Z"/><path fill="#3D93FA" stroke="#223893" stroke-linecap="round" stroke-linejoin="round" stroke-miterlimit="10" stroke-width=".787" d="M155.261 101.54c-.568 1.021-1.589 2.042-3.008 2.837-4.766 2.78-12.54 2.78-17.363 0-1.418-.851-2.44-1.816-3.007-2.837.567-1.022 1.589-2.043 3.007-2.838 4.766-2.78 12.54-2.78 17.363 0 1.419.852 2.44 1.816 3.008 2.838Z"/><path fill="#E0E8F7" stroke="#223893" stroke-linecap="round" stroke-linejoin="round" stroke-miterlimit="10" stroke-width=".787" d="M164.624 84.687v15.32c0 2.157-1.021 4.37-3.007 6.299-.851.794-1.929 1.589-3.121 2.326-8.228 4.767-21.562 4.767-29.79 0-1.248-.737-2.269-1.475-3.12-2.326-2.043-1.929-3.065-4.086-3.065-6.299v-15.32c0 2.61 1.362 5.05 4.37 7.377.113.113.227.17.34.283.454.34.965.624 1.475.965 8.228 4.766 21.562 4.766 29.79 0a13.164 13.164 0 0 0 1.475-.965c3.064-2.27 4.653-4.936 4.653-7.66Z"/><path fill="#E0E8F7" stroke="#223893" stroke-linecap="round" stroke-linejoin="round" stroke-miterlimit="10" stroke-width=".787" d="M128.647 93.255a13.164 13.164 0 0 1 0 0Z"/><path stroke="#223893" stroke-linecap="round" stroke-linejoin="round" stroke-miterlimit="10" stroke-width=".787" d="M156.225 94.39v6.298l2.099 2.043.114 5.844M128.875 93.369v6.071l2.043 2.1v8.17"/><path fill="#223893" d="M161.846 98.626c.27-.634.185-1.278-.19-1.437-.374-.16-.897.225-1.167.86-.27.634-.185 1.278.19 1.437.375.16.897-.225 1.167-.86ZM127.106 103.644c.375-.159.46-.803.19-1.437-.27-.635-.793-1.02-1.168-.86-.375.159-.46.803-.19 1.437.27.635.793 1.02 1.168.86Z"/><path fill="#fff" stroke="#223893" stroke-linecap="round" stroke-linejoin="round" stroke-miterlimit="10" stroke-width=".787" d="M164.622 84.687c0 2.723-1.588 5.447-4.709 7.66-.454.34-.965.624-1.476.965-8.227 4.766-21.562 4.766-29.789 0a13.191 13.191 0 0 1-1.476-.965c-.113-.113-.226-.17-.34-.284-2.951-2.326-4.369-4.766-4.369-7.376 0-3.121 2.043-6.242 6.185-8.568 8.227-4.767 21.562-4.767 29.789 0 4.143 2.326 6.185 5.447 6.185 8.568Z"/><path fill="#80C0FF" stroke="#223893" stroke-linecap="round" stroke-linejoin="round" stroke-miterlimit="10" stroke-width=".787" d="M155.26 86.843c-.568 1.022-1.589 2.043-3.008 2.837-4.766 2.78-12.54 2.78-17.363 0-1.418-.85-2.44-1.816-3.007-2.837-1.362-2.44-.341-5.22 3.007-7.15 4.767-2.78 12.54-2.78 17.363 0 3.348 1.93 4.313 4.71 3.008 7.15Z"/><path fill="#3D93FA" stroke="#223893" stroke-linecap="round" stroke-linejoin="round" stroke-miterlimit="10" stroke-width=".787" d="M155.261 86.843c-.568 1.022-1.589 2.043-3.008 2.837-4.766 2.78-12.54 2.78-17.363 0-1.418-.85-2.44-1.815-3.007-2.837.567-1.021 1.589-2.042 3.007-2.837 4.766-2.78 12.54-2.78 17.363 0 1.419.795 2.44 1.76 3.008 2.837Z"/><path fill="#80C0FF" stroke="#223893" stroke-linecap="round" stroke-linejoin="round" stroke-miterlimit="10" stroke-width=".787" d="M164.624 69.934v15.32c0 2.157-1.021 4.37-3.007 6.299-.851.794-1.929 1.589-3.121 2.326-8.228 4.767-21.562 4.767-29.79 0-1.248-.737-2.269-1.475-3.12-2.326-2.043-1.93-3.065-4.086-3.065-6.299v-15.32c0 2.61 1.362 5.05 4.37 7.377.113.113.227.17.34.283.454.34.965.624 1.475.965 8.228 4.766 21.562 4.766 29.79 0a13.178 13.178 0 0 0 1.475-.965c3.064-2.213 4.653-4.936 4.653-7.66Z"/><path fill="#E0E8F7" stroke="#223893" stroke-linecap="round" stroke-linejoin="round" stroke-miterlimit="10" stroke-width=".787" d="M128.647 78.559a13.179 13.179 0 0 1-1.475-.965c.454.34.964.624 1.475.965Z"/><path stroke="#223893" stroke-linecap="round" stroke-linejoin="round" stroke-miterlimit="10" stroke-width=".787" d="M156.225 79.637v6.299l2.099 2.099.114 5.788M128.875 78.616v6.071l2.043 2.1v8.17"/><path fill="#223893" d="M161.878 83.907c.27-.634.185-1.278-.19-1.437-.375-.16-.898.225-1.168.86-.27.634-.185 1.278.19 1.437.375.16.898-.225 1.168-.86ZM127.098 88.892c.375-.16.46-.803.19-1.437-.27-.635-.793-1.02-1.168-.86-.375.16-.46.803-.19 1.438.27.634.793 1.019 1.168.86Z"/><path fill="#fff" stroke="#223893" stroke-linecap="round" stroke-linejoin="round" stroke-miterlimit="10" stroke-width=".787" d="M164.622 69.934c0 2.724-1.588 5.448-4.709 7.66-.454.341-.965.625-1.476.965-8.227 4.767-21.562 4.767-29.789 0a13.177 13.177 0 0 1-1.476-.965c-.113-.113-.226-.17-.34-.283-2.951-2.327-4.369-4.767-4.369-7.377 0-3.12 2.043-6.241 6.185-8.568 8.227-4.766 21.562-4.766 29.789 0 4.143 2.327 6.185 5.448 6.185 8.568Z"/><path fill="#80C0FF" stroke="#223893" stroke-linecap="round" stroke-linejoin="round" stroke-miterlimit="10" stroke-width=".787" d="M155.26 72.09c-.568 1.022-1.589 2.043-3.008 2.837-4.766 2.78-12.54 2.78-17.363 0-1.418-.85-2.44-1.815-3.007-2.837-1.362-2.44-.341-5.22 3.007-7.15 4.767-2.78 12.54-2.78 17.363 0 3.348 1.93 4.313 4.71 3.008 7.15Z"/><path fill="#3D93FA" stroke="#223893" stroke-linecap="round" stroke-linejoin="round" stroke-miterlimit="10" stroke-width=".787" d="M155.261 72.09c-.568 1.022-1.589 2.043-3.008 2.837-4.766 2.78-12.54 2.78-17.363 0-1.418-.85-2.44-1.815-3.007-2.837.567-1.021 1.589-2.042 3.007-2.837 4.766-2.78 12.54-2.78 17.363 0 1.419.795 2.44 1.816 3.008 2.837Z"/><path fill="#3D93FA" stroke="#223893" stroke-miterlimit="10" stroke-width=".787" d="M168.537 69.026c0 1.362-.284 2.78-.908 4.029-.511.964-6.752 8.114-18.498 9.93-.851.113-1.702.227-2.61.283-.965.057-1.986.114-3.008.114-15.32 0-23.491-9.306-24.058-10.384-.624-1.248-.908-2.61-.908-4.029.284-55.494 19.122-63.38 23.888-64.516.681-.17 1.078-.17 1.078-.17s2.327.114 5.618 2.156c7.32 4.597 19.179 18.725 19.406 62.587Z"/><path fill="#80C0FF" stroke="#223893" stroke-linecap="round" stroke-linejoin="round" stroke-miterlimit="10" stroke-width=".787" d="M168.536 69.026c0 1.362-.284 2.78-.908 4.029-.51.964-6.752 8.114-18.498 9.93-11.689-1.816-17.987-9.022-18.441-9.93-.624-1.249-.908-2.61-.908-4.03.227-43.918 12.086-57.99 19.406-62.529 7.263 4.54 19.122 18.668 19.349 62.53Z"/><path fill="#4CD9ED" stroke="#223893" stroke-linecap="round" stroke-linejoin="round" stroke-miterlimit="10" stroke-width=".787" d="M146.407 176.099h-5.731a1.139 1.139 0 0 1-1.135-1.135v-10.611c0-.624.511-1.135 1.135-1.135h5.731c.624 0 1.135.511 1.135 1.135v10.611c0 .624-.511 1.135-1.135 1.135ZM127.908 173.148l-4.426-2.78c-.567-.397-.964-1.022-.964-1.702v-9.93a.669.669 0 0 1 1.021-.568l4.426 2.781c.567.397.964 1.021.964 1.702v9.93c0 .51-.624.851-1.021.567ZM159.23 173.148l4.426-2.78c.568-.397.965-1.022.965-1.702v-9.93a.67.67 0 0 0-1.022-.568l-4.425 2.781c-.568.397-.965 1.021-.965 1.702v9.93c0 .51.567.851 1.021.567Z"/><path fill="#223893" d="M123.318 135.703c.577-.246.686-1.286.244-2.324-.441-1.039-1.267-1.681-1.844-1.436-.577.246-.686 1.286-.244 2.324.442 1.039 1.267 1.681 1.844 1.436ZM123.339 192.5c.577-.246.687-1.286.245-2.325-.442-1.038-1.268-1.68-1.844-1.435-.577.246-.687 1.286-.245 2.324.442 1.038 1.268 1.681 1.844 1.436ZM165.65 134.285c.442-1.038.333-2.078-.244-2.324-.577-.245-1.403.398-1.844 1.436-.442 1.038-.333 2.078.244 2.324.577.245 1.402-.397 1.844-1.436ZM165.703 191.054c.442-1.038.332-2.079-.244-2.324-.577-.246-1.403.397-1.845 1.435-.441 1.038-.332 2.079.245 2.324.576.246 1.402-.397 1.844-1.435ZM143.57 142.337a1.759 1.759 0 1 0 0-3.518 1.759 1.759 0 0 0 0 3.518ZM143.57 199.646a1.759 1.759 0 1 0 0-3.518 1.759 1.759 0 0 0 0 3.518Z"/><path fill="#3D93FA" stroke="#223893" stroke-miterlimit="10" stroke-width=".787" d="M171.544 311.259v5.22s-3.518 4.709-12.2 4.709c-8.681 0-12.199-4.709-12.199-4.709v-5.22s3.518 4.709 12.199 4.709c8.682 0 12.2-4.709 12.2-4.709Z"/><path fill="#80C0FF" stroke="#223893" stroke-linecap="round" stroke-linejoin="round" stroke-miterlimit="10" stroke-width=".787" d="M171.544 302.066v9.192s-3.518 4.71-12.2 4.71c-8.681 0-12.199-4.71-12.199-4.71v-9.192s3.518 4.71 12.199 4.71c8.682 0 12.2-4.71 12.2-4.71Z"/><path fill="#fff" stroke="#223893" stroke-linecap="round" stroke-linejoin="round" stroke-miterlimit="10" stroke-width=".787" d="M171.544 260.531v41.535s-3.518 4.71-12.199 4.71c-2.894 0-5.221-.511-7.036-1.248l.17-.057v-41.422l6.866-30.187 12.199 26.669Z"/><path fill="#E0E8F7" stroke="#223893" stroke-linecap="round" stroke-linejoin="round" stroke-miterlimit="10" stroke-width=".787" d="m159.287 233.862-6.865 30.187v41.422l-.171.057c-3.631-1.362-5.163-3.462-5.163-3.462v-41.535l12.199-26.669Z"/><path stroke="#223893" stroke-miterlimit="10" stroke-width=".787" d="M147.088 260.531s3.518 4.71 12.199 4.71c8.682 0 12.2-4.71 12.2-4.71"/><path fill="#3D93FA" stroke="#223893" stroke-miterlimit="10" stroke-width=".787" d="M140.055 311.259v5.22s-3.518 4.709-12.199 4.709c-8.682 0-12.2-4.709-12.2-4.709v-5.22s3.518 4.709 12.2 4.709c8.681 0 12.199-4.709 12.199-4.709Z"/><path fill="#80C0FF" stroke="#223893" stroke-linecap="round" stroke-linejoin="round" stroke-miterlimit="10" stroke-width=".787" d="M140.055 302.066v9.192s-3.518 4.71-12.199 4.71c-8.682 0-12.2-4.71-12.2-4.71v-9.192s3.518 4.71 12.2 4.71c8.681 0 12.199-4.71 12.199-4.71Z"/><path fill="#fff" stroke="#223893" stroke-linecap="round" stroke-linejoin="round" stroke-miterlimit="10" stroke-width=".787" d="M140.054 260.531v41.535s-3.518 4.71-12.2 4.71c-2.893 0-5.22-.511-7.036-1.248l.171-.057v-41.422l6.865-30.187 12.2 26.669Z"/><path fill="#E0E8F7" stroke="#223893" stroke-linecap="round" stroke-linejoin="round" stroke-miterlimit="10" stroke-width=".787" d="m127.797 233.862-6.866 30.187v41.422l-.17.057c-3.631-1.362-5.163-3.462-5.163-3.462v-41.535l12.199-26.669Z"/><path stroke="#223893" stroke-miterlimit="10" stroke-width=".787" d="M115.598 260.531s3.518 4.71 12.199 4.71c8.682 0 12.2-4.71 12.2-4.71"/><path fill="#4CD9ED" stroke="#223893" stroke-linecap="round" stroke-linejoin="round" stroke-miterlimit="10" stroke-width=".492" d="M320.656 137.224c.921-.546 1.672-1.946 1.672-3.174v-13.447c0-1.229-.751-1.809-1.672-1.263-.922.546-1.673 1.946-1.673 3.174v13.447c.035 1.229.751 1.775 1.673 1.263ZM314.341 138.794c.922-.546 1.673-1.945 1.673-3.174v-6.894c0-1.229-.751-1.809-1.673-1.263-.921.546-1.672 1.946-1.672 3.174v6.86c0 1.263.751 1.809 1.672 1.297ZM307.994 153.128c.921-.546 1.672-1.945 1.672-3.174v-13.447c0-1.228-.751-1.809-1.672-1.262-.922.546-1.673 1.945-1.673 3.174v13.446c0 1.229.751 1.809 1.673 1.263Z"/><path fill="#3D93FA" stroke="#223893" stroke-linecap="round" stroke-linejoin="round" stroke-miterlimit="10" stroke-width=".492" d="M301.679 146.985c.922-.546 1.673-1.945 1.673-3.174v-9.283c0-1.228-.751-1.809-1.673-1.262-.921.546-1.672 1.945-1.672 3.174v9.248c0 1.263.751 1.809 1.672 1.297ZM295.332 155.279c.921-.547 1.672-1.946 1.672-3.174v-10.478c0-1.229-.751-1.809-1.672-1.263-.922.546-1.673 1.946-1.673 3.174v10.478c0 1.228.751 1.774 1.673 1.263ZM282.669 156.638c.922-.546 1.673-1.945 1.673-3.174v-11.433c0-1.229-.751-1.809-1.673-1.263-.921.546-1.672 1.945-1.672 3.174v11.433c0 1.229.751 1.809 1.672 1.263ZM288.984 162.002c.921-.546 1.672-1.945 1.672-3.174v-16.962c0-1.228-.751-1.809-1.672-1.263-.922.546-1.672 1.946-1.672 3.174v16.962c0 1.229.75 1.809 1.672 1.263Z"/></svg>